solid OpenSCAD_Model
  facet normal 0 0 -1
    outer loop
      vertex -35 0 40
      vertex -34.2352 7.27691 40
      vertex -34.2352 -7.27691 40
    endloop
  endfacet
  facet normal 0 0 -1
    outer loop
      vertex -34.2352 -7.27691 40
      vertex -34.2352 7.27691 40
      vertex -31.9741 14.2358 40
    endloop
  endfacet
  facet normal 0 0 -1
    outer loop
      vertex -34.2352 -7.27691 40
      vertex -31.9741 14.2358 40
      vertex -28.3156 20.5725 40
    endloop
  endfacet
  facet normal 0 0 -1
    outer loop
      vertex -34.2352 -7.27691 40
      vertex -28.3156 20.5725 40
      vertex -23.4196 26.0101 40
    endloop
  endfacet
  facet normal 0 0 -1
    outer loop
      vertex -34.2352 -7.27691 40
      vertex -23.4196 26.0101 40
      vertex -17.5 30.3109 40
    endloop
  endfacet
  facet normal 0 0 -1
    outer loop
      vertex -34.2352 -7.27691 40
      vertex -17.5 30.3109 40
      vertex -10.8156 33.287 40
    endloop
  endfacet
  facet normal 0 0 -1
    outer loop
      vertex -34.2352 -7.27691 40
      vertex -10.8156 33.287 40
      vertex -3.6585 34.8083 40
    endloop
  endfacet
  facet normal 0 0 -1
    outer loop
      vertex -34.2352 -7.27691 40
      vertex -3.6585 34.8083 40
      vertex 3.6585 34.8083 40
    endloop
  endfacet
  facet normal 0 0 -1
    outer loop
      vertex 0.494427 26.5217 40
      vertex 3.6585 34.8083 40
      vertex 10.8156 33.287 40
    endloop
  endfacet
  facet normal 0 0 -1
    outer loop
      vertex 1.29443 24.0595 40
      vertex 10.8156 33.287 40
      vertex 17.5 30.3109 40
    endloop
  endfacet
  facet normal 0 0 -1
    outer loop
      vertex -23.4 0 40
      vertex 17.5 30.3109 40
      vertex 23.4196 26.0101 40
    endloop
  endfacet
  facet normal 0 0 -1
    outer loop
      vertex 3.44554 10.6043 40
      vertex 23.4196 26.0101 40
      vertex 28.3156 20.5725 40
    endloop
  endfacet
  facet normal 0 0 -1
    outer loop
      vertex 7.46081 8.28606 40
      vertex 28.3156 20.5725 40
      vertex 31.9741 14.2358 40
    endloop
  endfacet
  facet normal 0 0 -1
    outer loop
      vertex 10.186 4.53511 40
      vertex 31.9741 14.2358 40
      vertex 34.2352 7.27691 40
    endloop
  endfacet
  facet normal 0 0 -1
    outer loop
      vertex 26.2944 0.940456 40
      vertex 34.2352 7.27691 40
      vertex 26.6 0 40
    endloop
  endfacet
  facet normal 0 0 -1
    outer loop
      vertex 9.02054 -6.55381 40
      vertex 35 0 40
      vertex 34.2352 -7.27691 40
    endloop
  endfacet
  facet normal 0 0 -1
    outer loop
      vertex 5.575 -9.65618 40
      vertex 34.2352 -7.27691 40
      vertex 31.9741 -14.2358 40
    endloop
  endfacet
  facet normal 0 0 -1
    outer loop
      vertex -1.16549 -11.0889 40
      vertex 31.9741 -14.2358 40
      vertex 28.3156 -20.5725 40
    endloop
  endfacet
  facet normal 0 0 -1
    outer loop
      vertex -34.2352 -7.27691 40
      vertex 28.3156 -20.5725 40
      vertex 23.4196 -26.0101 40
    endloop
  endfacet
  facet normal 0 0 -1
    outer loop
      vertex -34.2352 -7.27691 40
      vertex 23.4196 -26.0101 40
      vertex 17.5 -30.3109 40
    endloop
  endfacet
  facet normal 0 0 -1
    outer loop
      vertex 1.29443 -25.9405 40
      vertex 17.5 -30.3109 40
      vertex 10.8156 -33.287 40
    endloop
  endfacet
  facet normal 0 0 -1
    outer loop
      vertex -34.2352 -7.27691 40
      vertex 10.8156 -33.287 40
      vertex 3.6585 -34.8083 40
    endloop
  endfacet
  facet normal 0 0 -1
    outer loop
      vertex -34.2352 -7.27691 40
      vertex 3.6585 -34.8083 40
      vertex -3.6585 -34.8083 40
    endloop
  endfacet
  facet normal 0 0 -1
    outer loop
      vertex -34.2352 -7.27691 40
      vertex -3.6585 -34.8083 40
      vertex -10.8156 -33.287 40
    endloop
  endfacet
  facet normal 0 0 -1
    outer loop
      vertex -34.2352 -7.27691 40
      vertex -10.8156 -33.287 40
      vertex -17.5 -30.3109 40
    endloop
  endfacet
  facet normal 0 0 -1
    outer loop
      vertex -34.2352 -7.27691 40
      vertex -17.5 -30.3109 40
      vertex -23.4196 -26.0101 40
    endloop
  endfacet
  facet normal 0 0 -1
    outer loop
      vertex -34.2352 -7.27691 40
      vertex -23.4196 -26.0101 40
      vertex -28.3156 -20.5725 40
    endloop
  endfacet
  facet normal 0 0 -1
    outer loop
      vertex -34.2352 -7.27691 40
      vertex -28.3156 -20.5725 40
      vertex -31.9741 -14.2358 40
    endloop
  endfacet
  facet normal 0 0 -1
    outer loop
      vertex -11.15 0 40
      vertex -34.2352 -7.27691 40
      vertex -10.9063 2.31821 40
    endloop
  endfacet
  facet normal 0 0 -1
    outer loop
      vertex -25.4944 -1.52169 40
      vertex -34.2352 -7.27691 40
      vertex -26.2944 -0.940456 40
    endloop
  endfacet
  facet normal 0 0 -1
    outer loop
      vertex -23.4 0 40
      vertex -5.575 9.65618 40
      vertex -23.7056 -0.940456 40
    endloop
  endfacet
  facet normal 0 0 -1
    outer loop
      vertex -23.4 0 40
      vertex 23.4196 26.0101 40
      vertex -5.575 9.65618 40
    endloop
  endfacet
  facet normal 0 0 -1
    outer loop
      vertex -34.2352 -7.27691 40
      vertex -25.4944 -1.52169 40
      vertex -24.5056 -1.52169 40
    endloop
  endfacet
  facet normal 0 0 -1
    outer loop
      vertex -7.46081 8.28606 40
      vertex -23.7056 -0.940456 40
      vertex -5.575 9.65618 40
    endloop
  endfacet
  facet normal 0 0 -1
    outer loop
      vertex -25.4944 1.52169 40
      vertex -1.6 25 40
      vertex -1.29443 24.0595 40
    endloop
  endfacet
  facet normal 0 0 -1
    outer loop
      vertex -23.7056 0.940456 40
      vertex 17.5 30.3109 40
      vertex -23.4 0 40
    endloop
  endfacet
  facet normal 0 0 -1
    outer loop
      vertex -25.4944 1.52169 40
      vertex -1.29443 25.9405 40
      vertex -1.6 25 40
    endloop
  endfacet
  facet normal 0 0 -1
    outer loop
      vertex -26.2944 0.940456 40
      vertex 3.6585 34.8083 40
      vertex -25.4944 1.52169 40
    endloop
  endfacet
  facet normal 0 0 -1
    outer loop
      vertex -26.2944 -0.940456 40
      vertex -34.2352 -7.27691 40
      vertex -26.6 0 40
    endloop
  endfacet
  facet normal 0 0 -1
    outer loop
      vertex -34.2352 -7.27691 40
      vertex 3.6585 34.8083 40
      vertex -26.2944 0.940456 40
    endloop
  endfacet
  facet normal 0 0 -1
    outer loop
      vertex -25.4944 1.52169 40
      vertex 3.6585 34.8083 40
      vertex -1.29443 25.9405 40
    endloop
  endfacet
  facet normal 0 0 -1
    outer loop
      vertex -10.186 -4.53511 40
      vertex -34.2352 -7.27691 40
      vertex -10.9063 -2.31821 40
    endloop
  endfacet
  facet normal 0 0 -1
    outer loop
      vertex -34.2352 -7.27691 40
      vertex -11.15 0 40
      vertex -10.9063 -2.31821 40
    endloop
  endfacet
  facet normal 0 0 -1
    outer loop
      vertex 10.186 4.53511 40
      vertex 34.2352 7.27691 40
      vertex 10.9063 2.31821 40
    endloop
  endfacet
  facet normal 0 0 -1
    outer loop
      vertex 10.9063 -2.31821 40
      vertex 24.5056 -1.52169 40
      vertex 25.4944 -1.52169 40
    endloop
  endfacet
  facet normal 0 0 -1
    outer loop
      vertex 1.29443 25.9405 40
      vertex 10.8156 33.287 40
      vertex 1.6 25 40
    endloop
  endfacet
  facet normal 0 0 -1
    outer loop
      vertex -3.44554 -10.6043 40
      vertex -34.2352 -7.27691 40
      vertex -5.575 -9.65618 40
    endloop
  endfacet
  facet normal 0 0 -1
    outer loop
      vertex -34.2352 -7.27691 40
      vertex -7.46081 -8.28606 40
      vertex -5.575 -9.65618 40
    endloop
  endfacet
  facet normal 0 0 -1
    outer loop
      vertex 3.44554 -10.6043 40
      vertex 31.9741 -14.2358 40
      vertex 1.16549 -11.0889 40
    endloop
  endfacet
  facet normal 0 0 -1
    outer loop
      vertex -34.2352 -7.27691 40
      vertex -3.44554 -10.6043 40
      vertex 28.3156 -20.5725 40
    endloop
  endfacet
  facet normal 0 0 -1
    outer loop
      vertex 1.16549 -11.0889 40
      vertex 31.9741 -14.2358 40
      vertex -1.16549 -11.0889 40
    endloop
  endfacet
  facet normal 0 0 -1
    outer loop
      vertex -3.44554 -10.6043 40
      vertex -1.16549 -11.0889 40
      vertex 28.3156 -20.5725 40
    endloop
  endfacet
  facet normal 0 0 -1
    outer loop
      vertex 5.575 -9.65618 40
      vertex 31.9741 -14.2358 40
      vertex 3.44554 -10.6043 40
    endloop
  endfacet
  facet normal 0 0 -1
    outer loop
      vertex 7.46081 -8.28606 40
      vertex 34.2352 -7.27691 40
      vertex 5.575 -9.65618 40
    endloop
  endfacet
  facet normal 0 0 -1
    outer loop
      vertex 9.02054 -6.55381 40
      vertex 34.2352 -7.27691 40
      vertex 7.46081 -8.28606 40
    endloop
  endfacet
  facet normal 0 0 -1
    outer loop
      vertex 10.186 -4.53511 40
      vertex 35 0 40
      vertex 9.02054 -6.55381 40
    endloop
  endfacet
  facet normal 0 0 -1
    outer loop
      vertex 25.4944 -1.52169 40
      vertex 35 0 40
      vertex 10.186 -4.53511 40
    endloop
  endfacet
  facet normal 0 0 -1
    outer loop
      vertex 11.15 0 40
      vertex 34.2352 7.27691 40
      vertex 10.9063 -2.31821 40
    endloop
  endfacet
  facet normal 0 0 -1
    outer loop
      vertex 10.9063 2.31821 40
      vertex 34.2352 7.27691 40
      vertex 11.15 0 40
    endloop
  endfacet
  facet normal 0 0 -1
    outer loop
      vertex -9.02054 -6.55381 40
      vertex -34.2352 -7.27691 40
      vertex -10.186 -4.53511 40
    endloop
  endfacet
  facet normal 0 0 -1
    outer loop
      vertex 9.02054 6.55381 40
      vertex 31.9741 14.2358 40
      vertex 10.186 4.53511 40
    endloop
  endfacet
  facet normal 0 0 -1
    outer loop
      vertex 7.46081 8.28606 40
      vertex 31.9741 14.2358 40
      vertex 9.02054 6.55381 40
    endloop
  endfacet
  facet normal 0 0 -1
    outer loop
      vertex 5.575 9.65618 40
      vertex 28.3156 20.5725 40
      vertex 7.46081 8.28606 40
    endloop
  endfacet
  facet normal 0 0 -1
    outer loop
      vertex 1.16549 11.0889 40
      vertex 23.4196 26.0101 40
      vertex 3.44554 10.6043 40
    endloop
  endfacet
  facet normal 0 0 -1
    outer loop
      vertex -3.44554 10.6043 40
      vertex 23.4196 26.0101 40
      vertex -1.16549 11.0889 40
    endloop
  endfacet
  facet normal 0 0 -1
    outer loop
      vertex -1.16549 11.0889 40
      vertex 23.4196 26.0101 40
      vertex 1.16549 11.0889 40
    endloop
  endfacet
  facet normal 0 0 -1
    outer loop
      vertex -9.02054 6.55381 40
      vertex -24.5056 -1.52169 40
      vertex -7.46081 8.28606 40
    endloop
  endfacet
  facet normal 0 0 -1
    outer loop
      vertex -5.575 9.65618 40
      vertex 23.4196 26.0101 40
      vertex -3.44554 10.6043 40
    endloop
  endfacet
  facet normal 0 0 -1
    outer loop
      vertex -7.46081 8.28606 40
      vertex -24.5056 -1.52169 40
      vertex -23.7056 -0.940456 40
    endloop
  endfacet
  facet normal 0 0 -1
    outer loop
      vertex -9.02054 6.55381 40
      vertex -34.2352 -7.27691 40
      vertex -24.5056 -1.52169 40
    endloop
  endfacet
  facet normal 0 0 -1
    outer loop
      vertex -10.186 4.53511 40
      vertex -34.2352 -7.27691 40
      vertex -9.02054 6.55381 40
    endloop
  endfacet
  facet normal 0 0 -1
    outer loop
      vertex -10.9063 2.31821 40
      vertex -34.2352 -7.27691 40
      vertex -10.186 4.53511 40
    endloop
  endfacet
  facet normal 0 0 -1
    outer loop
      vertex 0.494427 23.4783 40
      vertex -25.4944 1.52169 40
      vertex -0.494427 23.4783 40
    endloop
  endfacet
  facet normal 0 0 -1
    outer loop
      vertex 0.494427 -26.5217 40
      vertex 10.8156 -33.287 40
      vertex -0.494427 -26.5217 40
    endloop
  endfacet
  facet normal 0 0 -1
    outer loop
      vertex -0.494427 -23.4783 40
      vertex -34.2352 -7.27691 40
      vertex 0.494427 -23.4783 40
    endloop
  endfacet
  facet normal 0 0 -1
    outer loop
      vertex -34.2352 -7.27691 40
      vertex -1.6 -25 40
      vertex -1.29443 -25.9405 40
    endloop
  endfacet
  facet normal 0 0 -1
    outer loop
      vertex -34.2352 -7.27691 40
      vertex -1.29443 -25.9405 40
      vertex -0.494427 -26.5217 40
    endloop
  endfacet
  facet normal 0 0 -1
    outer loop
      vertex -34.2352 -7.27691 40
      vertex -0.494427 -26.5217 40
      vertex 10.8156 -33.287 40
    endloop
  endfacet
  facet normal 0 0 -1
    outer loop
      vertex 1.29443 -25.9405 40
      vertex 10.8156 -33.287 40
      vertex 0.494427 -26.5217 40
    endloop
  endfacet
  facet normal 0 0 -1
    outer loop
      vertex 1.6 -25 40
      vertex 17.5 -30.3109 40
      vertex 1.29443 -25.9405 40
    endloop
  endfacet
  facet normal 0 0 -1
    outer loop
      vertex 1.29443 -24.0595 40
      vertex 17.5 -30.3109 40
      vertex 1.6 -25 40
    endloop
  endfacet
  facet normal 0 0 -1
    outer loop
      vertex 0.494427 -23.4783 40
      vertex 17.5 -30.3109 40
      vertex 1.29443 -24.0595 40
    endloop
  endfacet
  facet normal 0 0 -1
    outer loop
      vertex -34.2352 -7.27691 40
      vertex 17.5 -30.3109 40
      vertex 0.494427 -23.4783 40
    endloop
  endfacet
  facet normal 0 0 -1
    outer loop
      vertex -1.29443 -24.0595 40
      vertex -34.2352 -7.27691 40
      vertex -0.494427 -23.4783 40
    endloop
  endfacet
  facet normal 0 0 -1
    outer loop
      vertex 0.494427 23.4783 40
      vertex -24.5056 1.52169 40
      vertex -25.4944 1.52169 40
    endloop
  endfacet
  facet normal 0 0 -1
    outer loop
      vertex 0.494427 23.4783 40
      vertex -23.7056 0.940456 40
      vertex -24.5056 1.52169 40
    endloop
  endfacet
  facet normal 0 0 -1
    outer loop
      vertex -34.2352 -7.27691 40
      vertex -1.29443 -24.0595 40
      vertex -1.6 -25 40
    endloop
  endfacet
  facet normal 0 0 -1
    outer loop
      vertex 24.5056 -1.52169 40
      vertex 10.9063 -2.31821 40
      vertex 23.7056 -0.940456 40
    endloop
  endfacet
  facet normal 0 0 -1
    outer loop
      vertex 10.9063 -2.31821 40
      vertex 25.4944 -1.52169 40
      vertex 10.186 -4.53511 40
    endloop
  endfacet
  facet normal 0 0 -1
    outer loop
      vertex 1.6 25 40
      vertex 10.8156 33.287 40
      vertex 1.29443 24.0595 40
    endloop
  endfacet
  facet normal 0 0 -1
    outer loop
      vertex -23.7056 0.940456 40
      vertex 0.494427 23.4783 40
      vertex 17.5 30.3109 40
    endloop
  endfacet
  facet normal 0 0 -1
    outer loop
      vertex 0.494427 23.4783 40
      vertex 1.29443 24.0595 40
      vertex 17.5 30.3109 40
    endloop
  endfacet
  facet normal 0 0 -1
    outer loop
      vertex 0.494427 26.5217 40
      vertex 10.8156 33.287 40
      vertex 1.29443 25.9405 40
    endloop
  endfacet
  facet normal 0 0 -1
    outer loop
      vertex -0.494427 26.5217 40
      vertex 3.6585 34.8083 40
      vertex 0.494427 26.5217 40
    endloop
  endfacet
  facet normal 0 0 -1
    outer loop
      vertex -1.29443 25.9405 40
      vertex 3.6585 34.8083 40
      vertex -0.494427 26.5217 40
    endloop
  endfacet
  facet normal 0 0 -1
    outer loop
      vertex 3.44554 10.6043 40
      vertex 28.3156 20.5725 40
      vertex 5.575 9.65618 40
    endloop
  endfacet
  facet normal 0 0 -1
    outer loop
      vertex 23.7056 0.940456 40
      vertex 10.9063 -2.31821 40
      vertex 24.5056 1.52169 40
    endloop
  endfacet
  facet normal 0 0 -1
    outer loop
      vertex 26.6 0 40
      vertex 34.2352 7.27691 40
      vertex 35 0 40
    endloop
  endfacet
  facet normal 0 0 -1
    outer loop
      vertex 10.9063 -2.31821 40
      vertex 23.4 0 40
      vertex 23.7056 -0.940456 40
    endloop
  endfacet
  facet normal 0 0 -1
    outer loop
      vertex 26.6 0 40
      vertex 35 0 40
      vertex 26.2944 -0.940456 40
    endloop
  endfacet
  facet normal 0 0 -1
    outer loop
      vertex -7.46081 -8.28606 40
      vertex -34.2352 -7.27691 40
      vertex -9.02054 -6.55381 40
    endloop
  endfacet
  facet normal 0 0 -1
    outer loop
      vertex 26.2944 -0.940456 40
      vertex 35 0 40
      vertex 25.4944 -1.52169 40
    endloop
  endfacet
  facet normal 0 0 -1
    outer loop
      vertex 25.4944 1.52169 40
      vertex 34.2352 7.27691 40
      vertex 26.2944 0.940456 40
    endloop
  endfacet
  facet normal 0 0 -1
    outer loop
      vertex 24.5056 1.52169 40
      vertex 34.2352 7.27691 40
      vertex 25.4944 1.52169 40
    endloop
  endfacet
  facet normal 0 0 -1
    outer loop
      vertex 10.9063 -2.31821 40
      vertex 34.2352 7.27691 40
      vertex 24.5056 1.52169 40
    endloop
  endfacet
  facet normal 0 0 -1
    outer loop
      vertex 10.9063 -2.31821 40
      vertex 23.7056 0.940456 40
      vertex 23.4 0 40
    endloop
  endfacet
  facet normal 0 0 -1
    outer loop
      vertex -26.6 0 40
      vertex -34.2352 -7.27691 40
      vertex -26.2944 0.940456 40
    endloop
  endfacet
  facet normal 0 0 -1
    outer loop
      vertex -25.4944 1.52169 40
      vertex -1.29443 24.0595 40
      vertex -0.494427 23.4783 40
    endloop
  endfacet
  facet normal -0.994522 0.104528 0
    outer loop
      vertex -35 0 40
      vertex -35 0 48
      vertex -34.2352 7.27691 40
    endloop
  endfacet
  facet normal -0.994522 0.104528 0
    outer loop
      vertex -34.2352 7.27691 40
      vertex -35 0 48
      vertex -34.2352 7.27691 48
    endloop
  endfacet
  facet normal -0.994522 -0.104528 0
    outer loop
      vertex -35 0 40
      vertex -34.2352 -7.27691 40
      vertex -35 0 48
    endloop
  endfacet
  facet normal -0.994522 -0.104528 0
    outer loop
      vertex -35 0 48
      vertex -34.2352 -7.27691 40
      vertex -34.2352 -7.27691 48
    endloop
  endfacet
  facet normal -0.951057 -0.309017 0
    outer loop
      vertex -34.2352 -7.27691 40
      vertex -31.9741 -14.2358 40
      vertex -34.2352 -7.27691 48
    endloop
  endfacet
  facet normal -0.951057 -0.309017 0
    outer loop
      vertex -34.2352 -7.27691 48
      vertex -31.9741 -14.2358 40
      vertex -31.9741 -14.2358 48
    endloop
  endfacet
  facet normal -0.866025 -0.5 0
    outer loop
      vertex -31.9741 -14.2358 40
      vertex -28.3156 -20.5725 40
      vertex -31.9741 -14.2358 48
    endloop
  endfacet
  facet normal -0.866025 -0.5 0
    outer loop
      vertex -31.9741 -14.2358 48
      vertex -28.3156 -20.5725 40
      vertex -28.3156 -20.5725 48
    endloop
  endfacet
  facet normal -0.743145 -0.669131 0
    outer loop
      vertex -28.3156 -20.5725 40
      vertex -23.4196 -26.0101 40
      vertex -28.3156 -20.5725 48
    endloop
  endfacet
  facet normal -0.743145 -0.669131 0
    outer loop
      vertex -28.3156 -20.5725 48
      vertex -23.4196 -26.0101 40
      vertex -23.4196 -26.0101 48
    endloop
  endfacet
  facet normal -0.587785 -0.809017 0
    outer loop
      vertex -23.4196 -26.0101 48
      vertex -23.4196 -26.0101 40
      vertex -17.5 -30.3109 40
    endloop
  endfacet
  facet normal -0.587785 -0.809017 0
    outer loop
      vertex -17.5 -30.3109 48
      vertex -23.4196 -26.0101 48
      vertex -17.5 -30.3109 40
    endloop
  endfacet
  facet normal -0.406737 -0.913545 0
    outer loop
      vertex -17.5 -30.3109 48
      vertex -17.5 -30.3109 40
      vertex -10.8156 -33.287 40
    endloop
  endfacet
  facet normal -0.406737 -0.913545 0
    outer loop
      vertex -10.8156 -33.287 48
      vertex -17.5 -30.3109 48
      vertex -10.8156 -33.287 40
    endloop
  endfacet
  facet normal -0.207912 -0.978148 0
    outer loop
      vertex -10.8156 -33.287 48
      vertex -10.8156 -33.287 40
      vertex -3.6585 -34.8083 40
    endloop
  endfacet
  facet normal -0.207912 -0.978148 0
    outer loop
      vertex -3.6585 -34.8083 48
      vertex -10.8156 -33.287 48
      vertex -3.6585 -34.8083 40
    endloop
  endfacet
  facet normal 0 -1 0
    outer loop
      vertex -3.6585 -34.8083 48
      vertex -3.6585 -34.8083 40
      vertex 3.6585 -34.8083 40
    endloop
  endfacet
  facet normal 0 -1 0
    outer loop
      vertex 3.6585 -34.8083 48
      vertex -3.6585 -34.8083 48
      vertex 3.6585 -34.8083 40
    endloop
  endfacet
  facet normal 0.207912 -0.978148 0
    outer loop
      vertex 3.6585 -34.8083 48
      vertex 3.6585 -34.8083 40
      vertex 10.8156 -33.287 40
    endloop
  endfacet
  facet normal 0.207912 -0.978148 0
    outer loop
      vertex 10.8156 -33.287 48
      vertex 3.6585 -34.8083 48
      vertex 10.8156 -33.287 40
    endloop
  endfacet
  facet normal 0.406737 -0.913545 0
    outer loop
      vertex 10.8156 -33.287 48
      vertex 10.8156 -33.287 40
      vertex 17.5 -30.3109 40
    endloop
  endfacet
  facet normal 0.406737 -0.913545 0
    outer loop
      vertex 17.5 -30.3109 48
      vertex 10.8156 -33.287 48
      vertex 17.5 -30.3109 40
    endloop
  endfacet
  facet normal 0.587785 -0.809017 0
    outer loop
      vertex 17.5 -30.3109 48
      vertex 17.5 -30.3109 40
      vertex 23.4196 -26.0101 40
    endloop
  endfacet
  facet normal 0.587785 -0.809017 0
    outer loop
      vertex 23.4196 -26.0101 48
      vertex 17.5 -30.3109 48
      vertex 23.4196 -26.0101 40
    endloop
  endfacet
  facet normal 0.743145 -0.669131 0
    outer loop
      vertex 23.4196 -26.0101 48
      vertex 23.4196 -26.0101 40
      vertex 28.3156 -20.5725 40
    endloop
  endfacet
  facet normal 0.743145 -0.669131 0
    outer loop
      vertex 28.3156 -20.5725 48
      vertex 23.4196 -26.0101 48
      vertex 28.3156 -20.5725 40
    endloop
  endfacet
  facet normal 0.866025 -0.5 0
    outer loop
      vertex 28.3156 -20.5725 48
      vertex 28.3156 -20.5725 40
      vertex 31.9741 -14.2358 40
    endloop
  endfacet
  facet normal 0.866025 -0.5 0
    outer loop
      vertex 31.9741 -14.2358 48
      vertex 28.3156 -20.5725 48
      vertex 31.9741 -14.2358 40
    endloop
  endfacet
  facet normal 0.951057 -0.309017 0
    outer loop
      vertex 31.9741 -14.2358 48
      vertex 31.9741 -14.2358 40
      vertex 34.2352 -7.27691 40
    endloop
  endfacet
  facet normal 0.951057 -0.309017 0
    outer loop
      vertex 34.2352 -7.27691 48
      vertex 31.9741 -14.2358 48
      vertex 34.2352 -7.27691 40
    endloop
  endfacet
  facet normal 0.994522 -0.104528 0
    outer loop
      vertex 34.2352 -7.27691 48
      vertex 34.2352 -7.27691 40
      vertex 35 0 40
    endloop
  endfacet
  facet normal 0.994522 -0.104528 0
    outer loop
      vertex 35 0 48
      vertex 34.2352 -7.27691 48
      vertex 35 0 40
    endloop
  endfacet
  facet normal 0.994522 0.104528 0
    outer loop
      vertex 35 0 40
      vertex 34.2352 7.27691 40
      vertex 34.2352 7.27691 48
    endloop
  endfacet
  facet normal 0.994522 0.104528 0
    outer loop
      vertex 35 0 48
      vertex 35 0 40
      vertex 34.2352 7.27691 48
    endloop
  endfacet
  facet normal 0.951057 0.309017 0
    outer loop
      vertex 34.2352 7.27691 40
      vertex 31.9741 14.2358 40
      vertex 31.9741 14.2358 48
    endloop
  endfacet
  facet normal 0.951057 0.309017 0
    outer loop
      vertex 34.2352 7.27691 48
      vertex 34.2352 7.27691 40
      vertex 31.9741 14.2358 48
    endloop
  endfacet
  facet normal 0.866025 0.5 0
    outer loop
      vertex 31.9741 14.2358 40
      vertex 28.3156 20.5725 40
      vertex 28.3156 20.5725 48
    endloop
  endfacet
  facet normal 0.866025 0.5 0
    outer loop
      vertex 31.9741 14.2358 48
      vertex 31.9741 14.2358 40
      vertex 28.3156 20.5725 48
    endloop
  endfacet
  facet normal 0.743145 0.669131 0
    outer loop
      vertex 28.3156 20.5725 40
      vertex 23.4196 26.0101 40
      vertex 23.4196 26.0101 48
    endloop
  endfacet
  facet normal 0.743145 0.669131 0
    outer loop
      vertex 28.3156 20.5725 48
      vertex 28.3156 20.5725 40
      vertex 23.4196 26.0101 48
    endloop
  endfacet
  facet normal 0.587785 0.809017 0
    outer loop
      vertex 17.5 30.3109 40
      vertex 17.5 30.3109 48
      vertex 23.4196 26.0101 40
    endloop
  endfacet
  facet normal 0.587785 0.809017 0
    outer loop
      vertex 23.4196 26.0101 40
      vertex 17.5 30.3109 48
      vertex 23.4196 26.0101 48
    endloop
  endfacet
  facet normal 0.406737 0.913545 0
    outer loop
      vertex 10.8156 33.287 40
      vertex 10.8156 33.287 48
      vertex 17.5 30.3109 40
    endloop
  endfacet
  facet normal 0.406737 0.913545 0
    outer loop
      vertex 17.5 30.3109 40
      vertex 10.8156 33.287 48
      vertex 17.5 30.3109 48
    endloop
  endfacet
  facet normal 0.207912 0.978148 0
    outer loop
      vertex 3.6585 34.8083 40
      vertex 3.6585 34.8083 48
      vertex 10.8156 33.287 40
    endloop
  endfacet
  facet normal 0.207912 0.978148 0
    outer loop
      vertex 10.8156 33.287 40
      vertex 3.6585 34.8083 48
      vertex 10.8156 33.287 48
    endloop
  endfacet
  facet normal 0 1 0
    outer loop
      vertex -3.6585 34.8083 40
      vertex -3.6585 34.8083 48
      vertex 3.6585 34.8083 40
    endloop
  endfacet
  facet normal 0 1 0
    outer loop
      vertex 3.6585 34.8083 40
      vertex -3.6585 34.8083 48
      vertex 3.6585 34.8083 48
    endloop
  endfacet
  facet normal -0.207912 0.978148 0
    outer loop
      vertex -10.8156 33.287 40
      vertex -10.8156 33.287 48
      vertex -3.6585 34.8083 40
    endloop
  endfacet
  facet normal -0.207912 0.978148 0
    outer loop
      vertex -3.6585 34.8083 40
      vertex -10.8156 33.287 48
      vertex -3.6585 34.8083 48
    endloop
  endfacet
  facet normal -0.406737 0.913545 0
    outer loop
      vertex -17.5 30.3109 40
      vertex -17.5 30.3109 48
      vertex -10.8156 33.287 40
    endloop
  endfacet
  facet normal -0.406737 0.913545 0
    outer loop
      vertex -10.8156 33.287 40
      vertex -17.5 30.3109 48
      vertex -10.8156 33.287 48
    endloop
  endfacet
  facet normal -0.587785 0.809017 0
    outer loop
      vertex -23.4196 26.0101 40
      vertex -23.4196 26.0101 48
      vertex -17.5 30.3109 40
    endloop
  endfacet
  facet normal -0.587785 0.809017 0
    outer loop
      vertex -17.5 30.3109 40
      vertex -23.4196 26.0101 48
      vertex -17.5 30.3109 48
    endloop
  endfacet
  facet normal -0.743145 0.669131 0
    outer loop
      vertex -28.3156 20.5725 40
      vertex -28.3156 20.5725 48
      vertex -23.4196 26.0101 40
    endloop
  endfacet
  facet normal -0.743145 0.669131 0
    outer loop
      vertex -23.4196 26.0101 40
      vertex -28.3156 20.5725 48
      vertex -23.4196 26.0101 48
    endloop
  endfacet
  facet normal -0.866025 0.5 0
    outer loop
      vertex -31.9741 14.2358 40
      vertex -31.9741 14.2358 48
      vertex -28.3156 20.5725 40
    endloop
  endfacet
  facet normal -0.866025 0.5 0
    outer loop
      vertex -28.3156 20.5725 40
      vertex -31.9741 14.2358 48
      vertex -28.3156 20.5725 48
    endloop
  endfacet
  facet normal -0.951057 0.309017 0
    outer loop
      vertex -34.2352 7.27691 40
      vertex -34.2352 7.27691 48
      vertex -31.9741 14.2358 40
    endloop
  endfacet
  facet normal -0.951057 0.309017 0
    outer loop
      vertex -31.9741 14.2358 40
      vertex -34.2352 7.27691 48
      vertex -31.9741 14.2358 48
    endloop
  endfacet
  facet normal 0.951056 -0.309017 0
    outer loop
      vertex -26.2944 0.940456 40
      vertex -26.2944 0.940456 48
      vertex -26.6 0 48
    endloop
  endfacet
  facet normal 0.951056 -0.309017 0
    outer loop
      vertex -26.6 0 40
      vertex -26.2944 0.940456 40
      vertex -26.6 0 48
    endloop
  endfacet
  facet normal 0.951056 0.309017 0
    outer loop
      vertex -26.6 0 48
      vertex -26.2944 -0.940456 48
      vertex -26.2944 -0.940456 40
    endloop
  endfacet
  facet normal 0.951056 0.309017 0
    outer loop
      vertex -26.6 0 40
      vertex -26.6 0 48
      vertex -26.2944 -0.940456 40
    endloop
  endfacet
  facet normal 0.587785 -0.809017 0
    outer loop
      vertex -25.4944 1.52169 40
      vertex -25.4944 1.52169 48
      vertex -26.2944 0.940456 48
    endloop
  endfacet
  facet normal 0.587785 -0.809017 0
    outer loop
      vertex -26.2944 0.940456 40
      vertex -25.4944 1.52169 40
      vertex -26.2944 0.940456 48
    endloop
  endfacet
  facet normal 0 -1 0
    outer loop
      vertex -24.5056 1.52169 40
      vertex -24.5056 1.52169 48
      vertex -25.4944 1.52169 48
    endloop
  endfacet
  facet normal 0 -1 0
    outer loop
      vertex -25.4944 1.52169 40
      vertex -24.5056 1.52169 40
      vertex -25.4944 1.52169 48
    endloop
  endfacet
  facet normal -0.587785 -0.809017 0
    outer loop
      vertex -23.7056 0.940456 40
      vertex -23.7056 0.940456 48
      vertex -24.5056 1.52169 48
    endloop
  endfacet
  facet normal -0.587785 -0.809017 0
    outer loop
      vertex -24.5056 1.52169 40
      vertex -23.7056 0.940456 40
      vertex -24.5056 1.52169 48
    endloop
  endfacet
  facet normal -0.951056 -0.309017 0
    outer loop
      vertex -23.4 0 48
      vertex -23.7056 0.940456 48
      vertex -23.4 0 40
    endloop
  endfacet
  facet normal -0.951056 -0.309017 0
    outer loop
      vertex -23.4 0 40
      vertex -23.7056 0.940456 48
      vertex -23.7056 0.940456 40
    endloop
  endfacet
  facet normal -0.951056 0.309017 0
    outer loop
      vertex -23.4 0 48
      vertex -23.4 0 40
      vertex -23.7056 -0.940456 48
    endloop
  endfacet
  facet normal -0.951056 0.309017 0
    outer loop
      vertex -23.7056 -0.940456 48
      vertex -23.4 0 40
      vertex -23.7056 -0.940456 40
    endloop
  endfacet
  facet normal -0.587785 0.809017 0
    outer loop
      vertex -23.7056 -0.940456 48
      vertex -23.7056 -0.940456 40
      vertex -24.5056 -1.52169 48
    endloop
  endfacet
  facet normal -0.587785 0.809017 0
    outer loop
      vertex -24.5056 -1.52169 48
      vertex -23.7056 -0.940456 40
      vertex -24.5056 -1.52169 40
    endloop
  endfacet
  facet normal 0 1 0
    outer loop
      vertex -24.5056 -1.52169 48
      vertex -24.5056 -1.52169 40
      vertex -25.4944 -1.52169 48
    endloop
  endfacet
  facet normal 0 1 0
    outer loop
      vertex -25.4944 -1.52169 48
      vertex -24.5056 -1.52169 40
      vertex -25.4944 -1.52169 40
    endloop
  endfacet
  facet normal 0.587785 0.809017 0
    outer loop
      vertex -25.4944 -1.52169 48
      vertex -25.4944 -1.52169 40
      vertex -26.2944 -0.940456 48
    endloop
  endfacet
  facet normal 0.587785 0.809017 0
    outer loop
      vertex -26.2944 -0.940456 48
      vertex -25.4944 -1.52169 40
      vertex -26.2944 -0.940456 40
    endloop
  endfacet
  facet normal 0.994522 -0.104528 0
    outer loop
      vertex -10.9063 2.31821 40
      vertex -10.9063 2.31821 48
      vertex -11.15 0 48
    endloop
  endfacet
  facet normal 0.994522 -0.104528 0
    outer loop
      vertex -11.15 0 40
      vertex -10.9063 2.31821 40
      vertex -11.15 0 48
    endloop
  endfacet
  facet normal 0.994522 0.104528 0
    outer loop
      vertex -11.15 0 48
      vertex -10.9063 -2.31821 48
      vertex -10.9063 -2.31821 40
    endloop
  endfacet
  facet normal 0.994522 0.104528 0
    outer loop
      vertex -11.15 0 40
      vertex -11.15 0 48
      vertex -10.9063 -2.31821 40
    endloop
  endfacet
  facet normal 0.951057 -0.309017 0
    outer loop
      vertex -10.186 4.53511 40
      vertex -10.186 4.53511 48
      vertex -10.9063 2.31821 48
    endloop
  endfacet
  facet normal 0.951057 -0.309017 0
    outer loop
      vertex -10.9063 2.31821 40
      vertex -10.186 4.53511 40
      vertex -10.9063 2.31821 48
    endloop
  endfacet
  facet normal 0.866025 -0.5 0
    outer loop
      vertex -9.02054 6.55381 40
      vertex -9.02054 6.55381 48
      vertex -10.186 4.53511 48
    endloop
  endfacet
  facet normal 0.866025 -0.5 0
    outer loop
      vertex -10.186 4.53511 40
      vertex -9.02054 6.55381 40
      vertex -10.186 4.53511 48
    endloop
  endfacet
  facet normal 0.743145 -0.669131 0
    outer loop
      vertex -7.46081 8.28606 40
      vertex -7.46081 8.28606 48
      vertex -9.02054 6.55381 48
    endloop
  endfacet
  facet normal 0.743145 -0.669131 0
    outer loop
      vertex -9.02054 6.55381 40
      vertex -7.46081 8.28606 40
      vertex -9.02054 6.55381 48
    endloop
  endfacet
  facet normal 0.587785 -0.809017 0
    outer loop
      vertex -5.575 9.65618 40
      vertex -5.575 9.65618 48
      vertex -7.46081 8.28606 48
    endloop
  endfacet
  facet normal 0.587785 -0.809017 0
    outer loop
      vertex -7.46081 8.28606 40
      vertex -5.575 9.65618 40
      vertex -7.46081 8.28606 48
    endloop
  endfacet
  facet normal 0.406737 -0.913545 0
    outer loop
      vertex -3.44554 10.6043 40
      vertex -3.44554 10.6043 48
      vertex -5.575 9.65618 48
    endloop
  endfacet
  facet normal 0.406737 -0.913545 0
    outer loop
      vertex -5.575 9.65618 40
      vertex -3.44554 10.6043 40
      vertex -5.575 9.65618 48
    endloop
  endfacet
  facet normal 0.207912 -0.978148 0
    outer loop
      vertex -1.16549 11.0889 40
      vertex -1.16549 11.0889 48
      vertex -3.44554 10.6043 48
    endloop
  endfacet
  facet normal 0.207912 -0.978148 0
    outer loop
      vertex -3.44554 10.6043 40
      vertex -1.16549 11.0889 40
      vertex -3.44554 10.6043 48
    endloop
  endfacet
  facet normal 0 -1 0
    outer loop
      vertex 1.16549 11.0889 40
      vertex 1.16549 11.0889 48
      vertex -1.16549 11.0889 48
    endloop
  endfacet
  facet normal 0 -1 0
    outer loop
      vertex -1.16549 11.0889 40
      vertex 1.16549 11.0889 40
      vertex -1.16549 11.0889 48
    endloop
  endfacet
  facet normal -0.207912 -0.978148 0
    outer loop
      vertex 3.44554 10.6043 40
      vertex 3.44554 10.6043 48
      vertex 1.16549 11.0889 48
    endloop
  endfacet
  facet normal -0.207912 -0.978148 0
    outer loop
      vertex 1.16549 11.0889 40
      vertex 3.44554 10.6043 40
      vertex 1.16549 11.0889 48
    endloop
  endfacet
  facet normal -0.406737 -0.913545 0
    outer loop
      vertex 5.575 9.65618 40
      vertex 5.575 9.65618 48
      vertex 3.44554 10.6043 48
    endloop
  endfacet
  facet normal -0.406737 -0.913545 0
    outer loop
      vertex 3.44554 10.6043 40
      vertex 5.575 9.65618 40
      vertex 3.44554 10.6043 48
    endloop
  endfacet
  facet normal -0.587785 -0.809017 0
    outer loop
      vertex 7.46081 8.28606 40
      vertex 7.46081 8.28606 48
      vertex 5.575 9.65618 48
    endloop
  endfacet
  facet normal -0.587785 -0.809017 0
    outer loop
      vertex 5.575 9.65618 40
      vertex 7.46081 8.28606 40
      vertex 5.575 9.65618 48
    endloop
  endfacet
  facet normal -0.743145 -0.669131 0
    outer loop
      vertex 9.02054 6.55381 48
      vertex 7.46081 8.28606 48
      vertex 9.02054 6.55381 40
    endloop
  endfacet
  facet normal -0.743145 -0.669131 0
    outer loop
      vertex 9.02054 6.55381 40
      vertex 7.46081 8.28606 48
      vertex 7.46081 8.28606 40
    endloop
  endfacet
  facet normal -0.866025 -0.5 0
    outer loop
      vertex 10.186 4.53511 48
      vertex 9.02054 6.55381 48
      vertex 10.186 4.53511 40
    endloop
  endfacet
  facet normal -0.866025 -0.5 0
    outer loop
      vertex 10.186 4.53511 40
      vertex 9.02054 6.55381 48
      vertex 9.02054 6.55381 40
    endloop
  endfacet
  facet normal -0.951057 -0.309017 0
    outer loop
      vertex 10.9063 2.31821 48
      vertex 10.186 4.53511 48
      vertex 10.9063 2.31821 40
    endloop
  endfacet
  facet normal -0.951057 -0.309017 0
    outer loop
      vertex 10.9063 2.31821 40
      vertex 10.186 4.53511 48
      vertex 10.186 4.53511 40
    endloop
  endfacet
  facet normal -0.994522 -0.104528 0
    outer loop
      vertex 11.15 0 48
      vertex 10.9063 2.31821 48
      vertex 11.15 0 40
    endloop
  endfacet
  facet normal -0.994522 -0.104528 0
    outer loop
      vertex 11.15 0 40
      vertex 10.9063 2.31821 48
      vertex 10.9063 2.31821 40
    endloop
  endfacet
  facet normal -0.994522 0.104528 0
    outer loop
      vertex 11.15 0 48
      vertex 11.15 0 40
      vertex 10.9063 -2.31821 48
    endloop
  endfacet
  facet normal -0.994522 0.104528 0
    outer loop
      vertex 10.9063 -2.31821 48
      vertex 11.15 0 40
      vertex 10.9063 -2.31821 40
    endloop
  endfacet
  facet normal -0.951057 0.309017 0
    outer loop
      vertex 10.9063 -2.31821 48
      vertex 10.9063 -2.31821 40
      vertex 10.186 -4.53511 48
    endloop
  endfacet
  facet normal -0.951057 0.309017 0
    outer loop
      vertex 10.186 -4.53511 48
      vertex 10.9063 -2.31821 40
      vertex 10.186 -4.53511 40
    endloop
  endfacet
  facet normal -0.866025 0.5 0
    outer loop
      vertex 10.186 -4.53511 48
      vertex 10.186 -4.53511 40
      vertex 9.02054 -6.55381 48
    endloop
  endfacet
  facet normal -0.866025 0.5 0
    outer loop
      vertex 9.02054 -6.55381 48
      vertex 10.186 -4.53511 40
      vertex 9.02054 -6.55381 40
    endloop
  endfacet
  facet normal -0.743145 0.669131 0
    outer loop
      vertex 9.02054 -6.55381 48
      vertex 9.02054 -6.55381 40
      vertex 7.46081 -8.28606 48
    endloop
  endfacet
  facet normal -0.743145 0.669131 0
    outer loop
      vertex 7.46081 -8.28606 48
      vertex 9.02054 -6.55381 40
      vertex 7.46081 -8.28606 40
    endloop
  endfacet
  facet normal -0.587785 0.809017 0
    outer loop
      vertex 7.46081 -8.28606 48
      vertex 7.46081 -8.28606 40
      vertex 5.575 -9.65618 48
    endloop
  endfacet
  facet normal -0.587785 0.809017 0
    outer loop
      vertex 5.575 -9.65618 48
      vertex 7.46081 -8.28606 40
      vertex 5.575 -9.65618 40
    endloop
  endfacet
  facet normal -0.406737 0.913545 0
    outer loop
      vertex 5.575 -9.65618 48
      vertex 5.575 -9.65618 40
      vertex 3.44554 -10.6043 48
    endloop
  endfacet
  facet normal -0.406737 0.913545 0
    outer loop
      vertex 3.44554 -10.6043 48
      vertex 5.575 -9.65618 40
      vertex 3.44554 -10.6043 40
    endloop
  endfacet
  facet normal -0.207912 0.978148 0
    outer loop
      vertex 3.44554 -10.6043 48
      vertex 3.44554 -10.6043 40
      vertex 1.16549 -11.0889 48
    endloop
  endfacet
  facet normal -0.207912 0.978148 0
    outer loop
      vertex 1.16549 -11.0889 48
      vertex 3.44554 -10.6043 40
      vertex 1.16549 -11.0889 40
    endloop
  endfacet
  facet normal 0 1 0
    outer loop
      vertex 1.16549 -11.0889 48
      vertex 1.16549 -11.0889 40
      vertex -1.16549 -11.0889 48
    endloop
  endfacet
  facet normal 0 1 0
    outer loop
      vertex -1.16549 -11.0889 48
      vertex 1.16549 -11.0889 40
      vertex -1.16549 -11.0889 40
    endloop
  endfacet
  facet normal 0.207912 0.978148 0
    outer loop
      vertex -1.16549 -11.0889 48
      vertex -1.16549 -11.0889 40
      vertex -3.44554 -10.6043 48
    endloop
  endfacet
  facet normal 0.207912 0.978148 0
    outer loop
      vertex -3.44554 -10.6043 48
      vertex -1.16549 -11.0889 40
      vertex -3.44554 -10.6043 40
    endloop
  endfacet
  facet normal 0.406737 0.913545 0
    outer loop
      vertex -3.44554 -10.6043 48
      vertex -3.44554 -10.6043 40
      vertex -5.575 -9.65618 48
    endloop
  endfacet
  facet normal 0.406737 0.913545 0
    outer loop
      vertex -5.575 -9.65618 48
      vertex -3.44554 -10.6043 40
      vertex -5.575 -9.65618 40
    endloop
  endfacet
  facet normal 0.587785 0.809017 0
    outer loop
      vertex -5.575 -9.65618 48
      vertex -5.575 -9.65618 40
      vertex -7.46081 -8.28606 48
    endloop
  endfacet
  facet normal 0.587785 0.809017 0
    outer loop
      vertex -7.46081 -8.28606 48
      vertex -5.575 -9.65618 40
      vertex -7.46081 -8.28606 40
    endloop
  endfacet
  facet normal 0.743145 0.669131 0
    outer loop
      vertex -9.02054 -6.55381 48
      vertex -7.46081 -8.28606 48
      vertex -7.46081 -8.28606 40
    endloop
  endfacet
  facet normal 0.743145 0.669131 0
    outer loop
      vertex -9.02054 -6.55381 40
      vertex -9.02054 -6.55381 48
      vertex -7.46081 -8.28606 40
    endloop
  endfacet
  facet normal 0.866025 0.5 0
    outer loop
      vertex -10.186 -4.53511 48
      vertex -9.02054 -6.55381 48
      vertex -9.02054 -6.55381 40
    endloop
  endfacet
  facet normal 0.866025 0.5 0
    outer loop
      vertex -10.186 -4.53511 40
      vertex -10.186 -4.53511 48
      vertex -9.02054 -6.55381 40
    endloop
  endfacet
  facet normal 0.951057 0.309017 0
    outer loop
      vertex -10.9063 -2.31821 48
      vertex -10.186 -4.53511 48
      vertex -10.186 -4.53511 40
    endloop
  endfacet
  facet normal 0.951057 0.309017 0
    outer loop
      vertex -10.9063 -2.31821 40
      vertex -10.9063 -2.31821 48
      vertex -10.186 -4.53511 40
    endloop
  endfacet
  facet normal 0.951056 0.309017 0
    outer loop
      vertex -1.6 -25 48
      vertex -1.29443 -25.9405 48
      vertex -1.29443 -25.9405 40
    endloop
  endfacet
  facet normal 0.951056 0.309017 0
    outer loop
      vertex -1.6 -25 40
      vertex -1.6 -25 48
      vertex -1.29443 -25.9405 40
    endloop
  endfacet
  facet normal 0.951056 -0.309017 0
    outer loop
      vertex -1.29443 -24.0595 40
      vertex -1.29443 -24.0595 48
      vertex -1.6 -25 48
    endloop
  endfacet
  facet normal 0.951056 -0.309017 0
    outer loop
      vertex -1.6 -25 40
      vertex -1.29443 -24.0595 40
      vertex -1.6 -25 48
    endloop
  endfacet
  facet normal 0.587785 -0.809017 0
    outer loop
      vertex -0.494427 -23.4783 40
      vertex -0.494427 -23.4783 48
      vertex -1.29443 -24.0595 48
    endloop
  endfacet
  facet normal 0.587785 -0.809017 0
    outer loop
      vertex -1.29443 -24.0595 40
      vertex -0.494427 -23.4783 40
      vertex -1.29443 -24.0595 48
    endloop
  endfacet
  facet normal 0 -1 0
    outer loop
      vertex 0.494427 -23.4783 40
      vertex 0.494427 -23.4783 48
      vertex -0.494427 -23.4783 48
    endloop
  endfacet
  facet normal 0 -1 0
    outer loop
      vertex -0.494427 -23.4783 40
      vertex 0.494427 -23.4783 40
      vertex -0.494427 -23.4783 48
    endloop
  endfacet
  facet normal -0.587785 -0.809017 0
    outer loop
      vertex 1.29443 -24.0595 40
      vertex 1.29443 -24.0595 48
      vertex 0.494427 -23.4783 48
    endloop
  endfacet
  facet normal -0.587785 -0.809017 0
    outer loop
      vertex 0.494427 -23.4783 40
      vertex 1.29443 -24.0595 40
      vertex 0.494427 -23.4783 48
    endloop
  endfacet
  facet normal -0.951056 -0.309017 0
    outer loop
      vertex 1.6 -25 48
      vertex 1.29443 -24.0595 48
      vertex 1.6 -25 40
    endloop
  endfacet
  facet normal -0.951056 -0.309017 0
    outer loop
      vertex 1.6 -25 40
      vertex 1.29443 -24.0595 48
      vertex 1.29443 -24.0595 40
    endloop
  endfacet
  facet normal -0.951056 0.309017 0
    outer loop
      vertex 1.6 -25 48
      vertex 1.6 -25 40
      vertex 1.29443 -25.9405 48
    endloop
  endfacet
  facet normal -0.951056 0.309017 0
    outer loop
      vertex 1.29443 -25.9405 48
      vertex 1.6 -25 40
      vertex 1.29443 -25.9405 40
    endloop
  endfacet
  facet normal -0.587785 0.809017 0
    outer loop
      vertex 1.29443 -25.9405 48
      vertex 1.29443 -25.9405 40
      vertex 0.494427 -26.5217 48
    endloop
  endfacet
  facet normal -0.587785 0.809017 0
    outer loop
      vertex 0.494427 -26.5217 48
      vertex 1.29443 -25.9405 40
      vertex 0.494427 -26.5217 40
    endloop
  endfacet
  facet normal 0 1 0
    outer loop
      vertex 0.494427 -26.5217 48
      vertex 0.494427 -26.5217 40
      vertex -0.494427 -26.5217 48
    endloop
  endfacet
  facet normal 0 1 0
    outer loop
      vertex -0.494427 -26.5217 48
      vertex 0.494427 -26.5217 40
      vertex -0.494427 -26.5217 40
    endloop
  endfacet
  facet normal 0.587785 0.809017 0
    outer loop
      vertex -0.494427 -26.5217 48
      vertex -0.494427 -26.5217 40
      vertex -1.29443 -25.9405 48
    endloop
  endfacet
  facet normal 0.587785 0.809017 0
    outer loop
      vertex -1.29443 -25.9405 48
      vertex -0.494427 -26.5217 40
      vertex -1.29443 -25.9405 40
    endloop
  endfacet
  facet normal 0.951056 -0.309017 0
    outer loop
      vertex -1.29443 25.9405 40
      vertex -1.29443 25.9405 48
      vertex -1.6 25 48
    endloop
  endfacet
  facet normal 0.951056 -0.309017 0
    outer loop
      vertex -1.6 25 40
      vertex -1.29443 25.9405 40
      vertex -1.6 25 48
    endloop
  endfacet
  facet normal 0.951056 0.309017 0
    outer loop
      vertex -1.6 25 48
      vertex -1.29443 24.0595 48
      vertex -1.29443 24.0595 40
    endloop
  endfacet
  facet normal 0.951056 0.309017 0
    outer loop
      vertex -1.6 25 40
      vertex -1.6 25 48
      vertex -1.29443 24.0595 40
    endloop
  endfacet
  facet normal 0.587785 -0.809017 0
    outer loop
      vertex -0.494427 26.5217 40
      vertex -0.494427 26.5217 48
      vertex -1.29443 25.9405 48
    endloop
  endfacet
  facet normal 0.587785 -0.809017 0
    outer loop
      vertex -1.29443 25.9405 40
      vertex -0.494427 26.5217 40
      vertex -1.29443 25.9405 48
    endloop
  endfacet
  facet normal 0 -1 0
    outer loop
      vertex 0.494427 26.5217 40
      vertex 0.494427 26.5217 48
      vertex -0.494427 26.5217 48
    endloop
  endfacet
  facet normal 0 -1 0
    outer loop
      vertex -0.494427 26.5217 40
      vertex 0.494427 26.5217 40
      vertex -0.494427 26.5217 48
    endloop
  endfacet
  facet normal -0.587785 -0.809017 0
    outer loop
      vertex 1.29443 25.9405 40
      vertex 1.29443 25.9405 48
      vertex 0.494427 26.5217 48
    endloop
  endfacet
  facet normal -0.587785 -0.809017 0
    outer loop
      vertex 0.494427 26.5217 40
      vertex 1.29443 25.9405 40
      vertex 0.494427 26.5217 48
    endloop
  endfacet
  facet normal -0.951056 -0.309017 0
    outer loop
      vertex 1.6 25 48
      vertex 1.29443 25.9405 48
      vertex 1.6 25 40
    endloop
  endfacet
  facet normal -0.951056 -0.309017 0
    outer loop
      vertex 1.6 25 40
      vertex 1.29443 25.9405 48
      vertex 1.29443 25.9405 40
    endloop
  endfacet
  facet normal -0.951056 0.309017 0
    outer loop
      vertex 1.6 25 48
      vertex 1.6 25 40
      vertex 1.29443 24.0595 48
    endloop
  endfacet
  facet normal -0.951056 0.309017 0
    outer loop
      vertex 1.29443 24.0595 48
      vertex 1.6 25 40
      vertex 1.29443 24.0595 40
    endloop
  endfacet
  facet normal -0.587785 0.809017 0
    outer loop
      vertex 1.29443 24.0595 48
      vertex 1.29443 24.0595 40
      vertex 0.494427 23.4783 48
    endloop
  endfacet
  facet normal -0.587785 0.809017 0
    outer loop
      vertex 0.494427 23.4783 48
      vertex 1.29443 24.0595 40
      vertex 0.494427 23.4783 40
    endloop
  endfacet
  facet normal 0 1 0
    outer loop
      vertex 0.494427 23.4783 48
      vertex 0.494427 23.4783 40
      vertex -0.494427 23.4783 48
    endloop
  endfacet
  facet normal 0 1 0
    outer loop
      vertex -0.494427 23.4783 48
      vertex 0.494427 23.4783 40
      vertex -0.494427 23.4783 40
    endloop
  endfacet
  facet normal 0.587785 0.809017 0
    outer loop
      vertex -0.494427 23.4783 48
      vertex -0.494427 23.4783 40
      vertex -1.29443 24.0595 48
    endloop
  endfacet
  facet normal 0.587785 0.809017 0
    outer loop
      vertex -1.29443 24.0595 48
      vertex -0.494427 23.4783 40
      vertex -1.29443 24.0595 40
    endloop
  endfacet
  facet normal 0.951056 -0.309017 0
    outer loop
      vertex 23.7056 0.940456 40
      vertex 23.7056 0.940456 48
      vertex 23.4 0 48
    endloop
  endfacet
  facet normal 0.951056 -0.309017 0
    outer loop
      vertex 23.4 0 40
      vertex 23.7056 0.940456 40
      vertex 23.4 0 48
    endloop
  endfacet
  facet normal 0.951056 0.309017 0
    outer loop
      vertex 23.4 0 48
      vertex 23.7056 -0.940456 48
      vertex 23.7056 -0.940456 40
    endloop
  endfacet
  facet normal 0.951056 0.309017 0
    outer loop
      vertex 23.4 0 40
      vertex 23.4 0 48
      vertex 23.7056 -0.940456 40
    endloop
  endfacet
  facet normal 0.587785 -0.809017 0
    outer loop
      vertex 24.5056 1.52169 40
      vertex 24.5056 1.52169 48
      vertex 23.7056 0.940456 48
    endloop
  endfacet
  facet normal 0.587785 -0.809017 0
    outer loop
      vertex 23.7056 0.940456 40
      vertex 24.5056 1.52169 40
      vertex 23.7056 0.940456 48
    endloop
  endfacet
  facet normal 0 -1 0
    outer loop
      vertex 25.4944 1.52169 40
      vertex 25.4944 1.52169 48
      vertex 24.5056 1.52169 48
    endloop
  endfacet
  facet normal 0 -1 0
    outer loop
      vertex 24.5056 1.52169 40
      vertex 25.4944 1.52169 40
      vertex 24.5056 1.52169 48
    endloop
  endfacet
  facet normal -0.587785 -0.809017 0
    outer loop
      vertex 26.2944 0.940456 40
      vertex 26.2944 0.940456 48
      vertex 25.4944 1.52169 48
    endloop
  endfacet
  facet normal -0.587785 -0.809017 0
    outer loop
      vertex 25.4944 1.52169 40
      vertex 26.2944 0.940456 40
      vertex 25.4944 1.52169 48
    endloop
  endfacet
  facet normal -0.951056 -0.309017 0
    outer loop
      vertex 26.6 0 48
      vertex 26.2944 0.940456 48
      vertex 26.6 0 40
    endloop
  endfacet
  facet normal -0.951056 -0.309017 0
    outer loop
      vertex 26.6 0 40
      vertex 26.2944 0.940456 48
      vertex 26.2944 0.940456 40
    endloop
  endfacet
  facet normal -0.951056 0.309017 0
    outer loop
      vertex 26.6 0 48
      vertex 26.6 0 40
      vertex 26.2944 -0.940456 48
    endloop
  endfacet
  facet normal -0.951056 0.309017 0
    outer loop
      vertex 26.2944 -0.940456 48
      vertex 26.6 0 40
      vertex 26.2944 -0.940456 40
    endloop
  endfacet
  facet normal -0.587785 0.809017 0
    outer loop
      vertex 26.2944 -0.940456 48
      vertex 26.2944 -0.940456 40
      vertex 25.4944 -1.52169 48
    endloop
  endfacet
  facet normal -0.587785 0.809017 0
    outer loop
      vertex 25.4944 -1.52169 48
      vertex 26.2944 -0.940456 40
      vertex 25.4944 -1.52169 40
    endloop
  endfacet
  facet normal 0 1 0
    outer loop
      vertex 25.4944 -1.52169 48
      vertex 25.4944 -1.52169 40
      vertex 24.5056 -1.52169 48
    endloop
  endfacet
  facet normal 0 1 0
    outer loop
      vertex 24.5056 -1.52169 48
      vertex 25.4944 -1.52169 40
      vertex 24.5056 -1.52169 40
    endloop
  endfacet
  facet normal 0.587785 0.809017 0
    outer loop
      vertex 24.5056 -1.52169 48
      vertex 24.5056 -1.52169 40
      vertex 23.7056 -0.940456 48
    endloop
  endfacet
  facet normal 0.587785 0.809017 0
    outer loop
      vertex 23.7056 -0.940456 48
      vertex 24.5056 -1.52169 40
      vertex 23.7056 -0.940456 40
    endloop
  endfacet
  facet normal 0 0 1
    outer loop
      vertex -34.2352 7.27691 48
      vertex -35 0 48
      vertex -34.2352 -7.27691 48
    endloop
  endfacet
  facet normal 0 0 1
    outer loop
      vertex -28.3156 -20.5725 48
      vertex -34.2352 7.27691 48
      vertex -31.9741 -14.2358 48
    endloop
  endfacet
  facet normal 0 0 1
    outer loop
      vertex -31.9741 -14.2358 48
      vertex -34.2352 7.27691 48
      vertex -34.2352 -7.27691 48
    endloop
  endfacet
  facet normal 0 0 1
    outer loop
      vertex -23.4196 -26.0101 48
      vertex -34.2352 7.27691 48
      vertex -28.3156 -20.5725 48
    endloop
  endfacet
  facet normal 0 0 1
    outer loop
      vertex -17.5 -30.3109 48
      vertex -34.2352 7.27691 48
      vertex -23.4196 -26.0101 48
    endloop
  endfacet
  facet normal 0 0 1
    outer loop
      vertex -10.8156 -33.287 48
      vertex -34.2352 7.27691 48
      vertex -17.5 -30.3109 48
    endloop
  endfacet
  facet normal 0 0 1
    outer loop
      vertex -3.6585 -34.8083 48
      vertex -34.2352 7.27691 48
      vertex -10.8156 -33.287 48
    endloop
  endfacet
  facet normal 0 0 1
    outer loop
      vertex 3.6585 -34.8083 48
      vertex -34.2352 7.27691 48
      vertex -3.6585 -34.8083 48
    endloop
  endfacet
  facet normal 0 0 1
    outer loop
      vertex -26.2944 -0.940456 48
      vertex -34.2352 7.27691 48
      vertex 3.6585 -34.8083 48
    endloop
  endfacet
  facet normal 0 0 1
    outer loop
      vertex 1.29443 -24.0595 48
      vertex 1.6 -25 48
      vertex 10.8156 -33.287 48
    endloop
  endfacet
  facet normal 0 0 1
    outer loop
      vertex -0.494427 -23.4783 48
      vertex -25.4944 -1.52169 48
      vertex -26.2944 -0.940456 48
    endloop
  endfacet
  facet normal 0 0 1
    outer loop
      vertex 5.575 -9.65618 48
      vertex 3.44554 -10.6043 48
      vertex 28.3156 -20.5725 48
    endloop
  endfacet
  facet normal 0 0 1
    outer loop
      vertex 9.02054 -6.55381 48
      vertex 7.46081 -8.28606 48
      vertex 31.9741 -14.2358 48
    endloop
  endfacet
  facet normal 0 0 1
    outer loop
      vertex 11.15 0 48
      vertex 10.9063 -2.31821 48
      vertex 34.2352 -7.27691 48
    endloop
  endfacet
  facet normal 0 0 1
    outer loop
      vertex 1.16549 11.0889 48
      vertex 3.44554 10.6043 48
      vertex 31.9741 14.2358 48
    endloop
  endfacet
  facet normal 0 0 1
    outer loop
      vertex 3.44554 10.6043 48
      vertex 5.575 9.65618 48
      vertex 31.9741 14.2358 48
    endloop
  endfacet
  facet normal 0 0 1
    outer loop
      vertex 23.4196 26.0101 48
      vertex -34.2352 7.27691 48
      vertex 28.3156 20.5725 48
    endloop
  endfacet
  facet normal 0 0 1
    outer loop
      vertex 17.5 30.3109 48
      vertex -34.2352 7.27691 48
      vertex 23.4196 26.0101 48
    endloop
  endfacet
  facet normal 0 0 1
    outer loop
      vertex 0.494427 23.4783 48
      vertex -34.2352 7.27691 48
      vertex 17.5 30.3109 48
    endloop
  endfacet
  facet normal 0 0 1
    outer loop
      vertex 3.6585 34.8083 48
      vertex -34.2352 7.27691 48
      vertex 10.8156 33.287 48
    endloop
  endfacet
  facet normal 0 0 1
    outer loop
      vertex -3.6585 34.8083 48
      vertex -34.2352 7.27691 48
      vertex 3.6585 34.8083 48
    endloop
  endfacet
  facet normal 0 0 1
    outer loop
      vertex -10.8156 33.287 48
      vertex -34.2352 7.27691 48
      vertex -3.6585 34.8083 48
    endloop
  endfacet
  facet normal 0 0 1
    outer loop
      vertex -17.5 30.3109 48
      vertex -34.2352 7.27691 48
      vertex -10.8156 33.287 48
    endloop
  endfacet
  facet normal 0 0 1
    outer loop
      vertex -23.4196 26.0101 48
      vertex -34.2352 7.27691 48
      vertex -17.5 30.3109 48
    endloop
  endfacet
  facet normal 0 0 1
    outer loop
      vertex -28.3156 20.5725 48
      vertex -34.2352 7.27691 48
      vertex -23.4196 26.0101 48
    endloop
  endfacet
  facet normal 0 0 1
    outer loop
      vertex -31.9741 14.2358 48
      vertex -34.2352 7.27691 48
      vertex -28.3156 20.5725 48
    endloop
  endfacet
  facet normal 0 0 1
    outer loop
      vertex -1.29443 -25.9405 48
      vertex -26.2944 -0.940456 48
      vertex 3.6585 -34.8083 48
    endloop
  endfacet
  facet normal 0 0 1
    outer loop
      vertex -26.6 0 48
      vertex -34.2352 7.27691 48
      vertex -26.2944 -0.940456 48
    endloop
  endfacet
  facet normal 0 0 1
    outer loop
      vertex -23.7056 0.940456 48
      vertex -23.4 0 48
      vertex -5.575 -9.65618 48
    endloop
  endfacet
  facet normal 0 0 1
    outer loop
      vertex -5.575 -9.65618 48
      vertex -23.4 0 48
      vertex 23.4196 -26.0101 48
    endloop
  endfacet
  facet normal 0 0 1
    outer loop
      vertex 23.7056 0.940456 48
      vertex 24.5056 1.52169 48
      vertex 10.186 4.53511 48
    endloop
  endfacet
  facet normal 0 0 1
    outer loop
      vertex -24.5056 1.52169 48
      vertex -34.2352 7.27691 48
      vertex -25.4944 1.52169 48
    endloop
  endfacet
  facet normal 0 0 1
    outer loop
      vertex -5.575 -9.65618 48
      vertex -7.46081 -8.28606 48
      vertex -24.5056 1.52169 48
    endloop
  endfacet
  facet normal 0 0 1
    outer loop
      vertex -23.4 0 48
      vertex -23.7056 -0.940456 48
      vertex 17.5 -30.3109 48
    endloop
  endfacet
  facet normal 0 0 1
    outer loop
      vertex 23.4196 -26.0101 48
      vertex -23.4 0 48
      vertex 17.5 -30.3109 48
    endloop
  endfacet
  facet normal 0 0 1
    outer loop
      vertex -10.186 -4.53511 48
      vertex -10.9063 -2.31821 48
      vertex -34.2352 7.27691 48
    endloop
  endfacet
  facet normal 0 0 1
    outer loop
      vertex -26.2944 0.940456 48
      vertex -25.4944 1.52169 48
      vertex -34.2352 7.27691 48
    endloop
  endfacet
  facet normal 0 0 1
    outer loop
      vertex -7.46081 -8.28606 48
      vertex -34.2352 7.27691 48
      vertex -24.5056 1.52169 48
    endloop
  endfacet
  facet normal 0 0 1
    outer loop
      vertex -9.02054 -6.55381 48
      vertex -10.186 -4.53511 48
      vertex -34.2352 7.27691 48
    endloop
  endfacet
  facet normal 0 0 1
    outer loop
      vertex -10.9063 2.31821 48
      vertex -34.2352 7.27691 48
      vertex -11.15 0 48
    endloop
  endfacet
  facet normal 0 0 1
    outer loop
      vertex 10.9063 -2.31821 48
      vertex 10.186 -4.53511 48
      vertex 34.2352 -7.27691 48
    endloop
  endfacet
  facet normal 0 0 1
    outer loop
      vertex 10.186 4.53511 48
      vertex 24.5056 1.52169 48
      vertex 25.4944 1.52169 48
    endloop
  endfacet
  facet normal 0 0 1
    outer loop
      vertex -0.494427 -23.4783 48
      vertex -23.7056 -0.940456 48
      vertex -24.5056 -1.52169 48
    endloop
  endfacet
  facet normal 0 0 1
    outer loop
      vertex -5.575 9.65618 48
      vertex -3.44554 10.6043 48
      vertex -34.2352 7.27691 48
    endloop
  endfacet
  facet normal 0 0 1
    outer loop
      vertex 26.2944 0.940456 48
      vertex 26.6 0 48
      vertex 35 0 48
    endloop
  endfacet
  facet normal 0 0 1
    outer loop
      vertex -5.575 9.65618 48
      vertex -34.2352 7.27691 48
      vertex -7.46081 8.28606 48
    endloop
  endfacet
  facet normal 0 0 1
    outer loop
      vertex 7.46081 8.28606 48
      vertex 9.02054 6.55381 48
      vertex 34.2352 7.27691 48
    endloop
  endfacet
  facet normal 0 0 1
    outer loop
      vertex 28.3156 20.5725 48
      vertex -34.2352 7.27691 48
      vertex -3.44554 10.6043 48
    endloop
  endfacet
  facet normal 0 0 1
    outer loop
      vertex 28.3156 20.5725 48
      vertex -1.16549 11.0889 48
      vertex 31.9741 14.2358 48
    endloop
  endfacet
  facet normal 0 0 1
    outer loop
      vertex 28.3156 20.5725 48
      vertex -3.44554 10.6043 48
      vertex -1.16549 11.0889 48
    endloop
  endfacet
  facet normal 0 0 1
    outer loop
      vertex -1.16549 11.0889 48
      vertex 1.16549 11.0889 48
      vertex 31.9741 14.2358 48
    endloop
  endfacet
  facet normal 0 0 1
    outer loop
      vertex 31.9741 14.2358 48
      vertex 5.575 9.65618 48
      vertex 34.2352 7.27691 48
    endloop
  endfacet
  facet normal 0 0 1
    outer loop
      vertex 5.575 9.65618 48
      vertex 7.46081 8.28606 48
      vertex 34.2352 7.27691 48
    endloop
  endfacet
  facet normal 0 0 1
    outer loop
      vertex 34.2352 7.27691 48
      vertex 9.02054 6.55381 48
      vertex 35 0 48
    endloop
  endfacet
  facet normal 0 0 1
    outer loop
      vertex 9.02054 6.55381 48
      vertex 10.186 4.53511 48
      vertex 35 0 48
    endloop
  endfacet
  facet normal 0 0 1
    outer loop
      vertex 24.5056 -1.52169 48
      vertex 10.9063 2.31821 48
      vertex 34.2352 -7.27691 48
    endloop
  endfacet
  facet normal 0 0 1
    outer loop
      vertex 10.9063 2.31821 48
      vertex 11.15 0 48
      vertex 34.2352 -7.27691 48
    endloop
  endfacet
  facet normal 0 0 1
    outer loop
      vertex -1.16549 -11.0889 48
      vertex -3.44554 -10.6043 48
      vertex 23.4196 -26.0101 48
    endloop
  endfacet
  facet normal 0 0 1
    outer loop
      vertex 34.2352 -7.27691 48
      vertex 10.186 -4.53511 48
      vertex 31.9741 -14.2358 48
    endloop
  endfacet
  facet normal 0 0 1
    outer loop
      vertex 10.186 -4.53511 48
      vertex 9.02054 -6.55381 48
      vertex 31.9741 -14.2358 48
    endloop
  endfacet
  facet normal 0 0 1
    outer loop
      vertex 31.9741 -14.2358 48
      vertex 7.46081 -8.28606 48
      vertex 28.3156 -20.5725 48
    endloop
  endfacet
  facet normal 0 0 1
    outer loop
      vertex 7.46081 -8.28606 48
      vertex 5.575 -9.65618 48
      vertex 28.3156 -20.5725 48
    endloop
  endfacet
  facet normal 0 0 1
    outer loop
      vertex 28.3156 -20.5725 48
      vertex 3.44554 -10.6043 48
      vertex 23.4196 -26.0101 48
    endloop
  endfacet
  facet normal 0 0 1
    outer loop
      vertex -10.9063 -2.31821 48
      vertex -11.15 0 48
      vertex -34.2352 7.27691 48
    endloop
  endfacet
  facet normal 0 0 1
    outer loop
      vertex 3.44554 -10.6043 48
      vertex 1.16549 -11.0889 48
      vertex 23.4196 -26.0101 48
    endloop
  endfacet
  facet normal 0 0 1
    outer loop
      vertex 1.16549 -11.0889 48
      vertex -1.16549 -11.0889 48
      vertex 23.4196 -26.0101 48
    endloop
  endfacet
  facet normal 0 0 1
    outer loop
      vertex -5.575 -9.65618 48
      vertex -24.5056 1.52169 48
      vertex -23.7056 0.940456 48
    endloop
  endfacet
  facet normal 0 0 1
    outer loop
      vertex -7.46081 -8.28606 48
      vertex -9.02054 -6.55381 48
      vertex -34.2352 7.27691 48
    endloop
  endfacet
  facet normal 0 0 1
    outer loop
      vertex -3.44554 -10.6043 48
      vertex -5.575 -9.65618 48
      vertex 23.4196 -26.0101 48
    endloop
  endfacet
  facet normal 0 0 1
    outer loop
      vertex -10.9063 2.31821 48
      vertex -10.186 4.53511 48
      vertex -34.2352 7.27691 48
    endloop
  endfacet
  facet normal 0 0 1
    outer loop
      vertex -0.494427 -26.5217 48
      vertex -1.29443 -25.9405 48
      vertex 3.6585 -34.8083 48
    endloop
  endfacet
  facet normal 0 0 1
    outer loop
      vertex -1.6 -25 48
      vertex -26.2944 -0.940456 48
      vertex -1.29443 -25.9405 48
    endloop
  endfacet
  facet normal 0 0 1
    outer loop
      vertex -1.29443 -24.0595 48
      vertex -26.2944 -0.940456 48
      vertex -1.6 -25 48
    endloop
  endfacet
  facet normal 0 0 1
    outer loop
      vertex 0.494427 -26.5217 48
      vertex -0.494427 -26.5217 48
      vertex 10.8156 -33.287 48
    endloop
  endfacet
  facet normal 0 0 1
    outer loop
      vertex -0.494427 -23.4783 48
      vertex -26.2944 -0.940456 48
      vertex -1.29443 -24.0595 48
    endloop
  endfacet
  facet normal 0 0 1
    outer loop
      vertex 1.6 -25 48
      vertex 1.29443 -25.9405 48
      vertex 10.8156 -33.287 48
    endloop
  endfacet
  facet normal 0 0 1
    outer loop
      vertex 17.5 -30.3109 48
      vertex -23.7056 -0.940456 48
      vertex 0.494427 -23.4783 48
    endloop
  endfacet
  facet normal 0 0 1
    outer loop
      vertex 17.5 -30.3109 48
      vertex 1.29443 -24.0595 48
      vertex 10.8156 -33.287 48
    endloop
  endfacet
  facet normal 0 0 1
    outer loop
      vertex 17.5 -30.3109 48
      vertex 0.494427 -23.4783 48
      vertex 1.29443 -24.0595 48
    endloop
  endfacet
  facet normal 0 0 1
    outer loop
      vertex 1.29443 -25.9405 48
      vertex 0.494427 -26.5217 48
      vertex 10.8156 -33.287 48
    endloop
  endfacet
  facet normal 0 0 1
    outer loop
      vertex 0.494427 26.5217 48
      vertex 1.29443 25.9405 48
      vertex 10.8156 33.287 48
    endloop
  endfacet
  facet normal 0 0 1
    outer loop
      vertex -0.494427 23.4783 48
      vertex -1.29443 24.0595 48
      vertex -34.2352 7.27691 48
    endloop
  endfacet
  facet normal 0 0 1
    outer loop
      vertex 10.8156 -33.287 48
      vertex -0.494427 -26.5217 48
      vertex 3.6585 -34.8083 48
    endloop
  endfacet
  facet normal 0 0 1
    outer loop
      vertex 0.494427 23.4783 48
      vertex -0.494427 23.4783 48
      vertex -34.2352 7.27691 48
    endloop
  endfacet
  facet normal 0 0 1
    outer loop
      vertex -1.6 25 48
      vertex -34.2352 7.27691 48
      vertex -1.29443 24.0595 48
    endloop
  endfacet
  facet normal 0 0 1
    outer loop
      vertex 1.29443 25.9405 48
      vertex 1.6 25 48
      vertex 17.5 30.3109 48
    endloop
  endfacet
  facet normal 0 0 1
    outer loop
      vertex -1.29443 25.9405 48
      vertex -34.2352 7.27691 48
      vertex -1.6 25 48
    endloop
  endfacet
  facet normal 0 0 1
    outer loop
      vertex -0.494427 26.5217 48
      vertex -34.2352 7.27691 48
      vertex -1.29443 25.9405 48
    endloop
  endfacet
  facet normal 0 0 1
    outer loop
      vertex 10.8156 33.287 48
      vertex -34.2352 7.27691 48
      vertex -0.494427 26.5217 48
    endloop
  endfacet
  facet normal 0 0 1
    outer loop
      vertex 23.7056 0.940456 48
      vertex 10.186 4.53511 48
      vertex 10.9063 2.31821 48
    endloop
  endfacet
  facet normal 0 0 1
    outer loop
      vertex 10.8156 33.287 48
      vertex 1.29443 25.9405 48
      vertex 17.5 30.3109 48
    endloop
  endfacet
  facet normal 0 0 1
    outer loop
      vertex 1.6 25 48
      vertex 1.29443 24.0595 48
      vertex 17.5 30.3109 48
    endloop
  endfacet
  facet normal 0 0 1
    outer loop
      vertex 26.6 0 48
      vertex 26.2944 -0.940456 48
      vertex 35 0 48
    endloop
  endfacet
  facet normal 0 0 1
    outer loop
      vertex 1.29443 24.0595 48
      vertex 0.494427 23.4783 48
      vertex 17.5 30.3109 48
    endloop
  endfacet
  facet normal 0 0 1
    outer loop
      vertex -0.494427 26.5217 48
      vertex 0.494427 26.5217 48
      vertex 10.8156 33.287 48
    endloop
  endfacet
  facet normal 0 0 1
    outer loop
      vertex 23.4 0 48
      vertex 10.9063 2.31821 48
      vertex 23.7056 -0.940456 48
    endloop
  endfacet
  facet normal 0 0 1
    outer loop
      vertex 25.4944 -1.52169 48
      vertex 24.5056 -1.52169 48
      vertex 34.2352 -7.27691 48
    endloop
  endfacet
  facet normal 0 0 1
    outer loop
      vertex 23.7056 0.940456 48
      vertex 10.9063 2.31821 48
      vertex 23.4 0 48
    endloop
  endfacet
  facet normal 0 0 1
    outer loop
      vertex -0.494427 -23.4783 48
      vertex -24.5056 -1.52169 48
      vertex -25.4944 -1.52169 48
    endloop
  endfacet
  facet normal 0 0 1
    outer loop
      vertex 10.186 4.53511 48
      vertex 25.4944 1.52169 48
      vertex 35 0 48
    endloop
  endfacet
  facet normal 0 0 1
    outer loop
      vertex -0.494427 -23.4783 48
      vertex 0.494427 -23.4783 48
      vertex -23.7056 -0.940456 48
    endloop
  endfacet
  facet normal 0 0 1
    outer loop
      vertex -9.02054 6.55381 48
      vertex -7.46081 8.28606 48
      vertex -34.2352 7.27691 48
    endloop
  endfacet
  facet normal 0 0 1
    outer loop
      vertex 35 0 48
      vertex 26.2944 -0.940456 48
      vertex 34.2352 -7.27691 48
    endloop
  endfacet
  facet normal 0 0 1
    outer loop
      vertex 26.2944 -0.940456 48
      vertex 25.4944 -1.52169 48
      vertex 34.2352 -7.27691 48
    endloop
  endfacet
  facet normal 0 0 1
    outer loop
      vertex 23.7056 -0.940456 48
      vertex 10.9063 2.31821 48
      vertex 24.5056 -1.52169 48
    endloop
  endfacet
  facet normal 0 0 1
    outer loop
      vertex -26.6 0 48
      vertex -26.2944 0.940456 48
      vertex -34.2352 7.27691 48
    endloop
  endfacet
  facet normal 0 0 1
    outer loop
      vertex -10.186 4.53511 48
      vertex -9.02054 6.55381 48
      vertex -34.2352 7.27691 48
    endloop
  endfacet
  facet normal 0 0 1
    outer loop
      vertex 25.4944 1.52169 48
      vertex 26.2944 0.940456 48
      vertex 35 0 48
    endloop
  endfacet
endsolid OpenSCAD_Model
