solid OpenSCAD_Model
  facet normal -1 0 0
    outer loop
      vertex -15.5 -25 0
      vertex -15.5 -25 1.9
      vertex -15.5 25 0
    endloop
  endfacet
  facet normal -1 0 0
    outer loop
      vertex -15.5 25 0
      vertex -15.5 -25 1.9
      vertex -15.5 25 1.9
    endloop
  endfacet
  facet normal 0 -1 0
    outer loop
      vertex -15.5 -25 1.9
      vertex -15.5 -25 0
      vertex 15.5 -25 0
    endloop
  endfacet
  facet normal 0 -1 0
    outer loop
      vertex 15.5 -25 1.9
      vertex -15.5 -25 1.9
      vertex 15.5 -25 0
    endloop
  endfacet
  facet normal 0 0 -1
    outer loop
      vertex 2.2 6.9 0
      vertex -15.5 25 0
      vertex 15.5 25 0
    endloop
  endfacet
  facet normal 0 0 -1
    outer loop
      vertex -15.5 -25 0
      vertex -15.5 25 0
      vertex -6.9 2.2 0
    endloop
  endfacet
  facet normal 0 0 -1
    outer loop
      vertex -15.5 -25 0
      vertex -6.9 2.2 0
      vertex -6.9 -2.2 0
    endloop
  endfacet
  facet normal 0 0 -1
    outer loop
      vertex -15.5 -25 0
      vertex -6.9 -2.2 0
      vertex 15.5 -25 0
    endloop
  endfacet
  facet normal 0 0 -1
    outer loop
      vertex 2.2 -6.9 0
      vertex 15.5 -25 0
      vertex -2.2 -6.9 0
    endloop
  endfacet
  facet normal 0 0 -1
    outer loop
      vertex -6.9 -2.2 0
      vertex -2.2 -6.9 0
      vertex 15.5 -25 0
    endloop
  endfacet
  facet normal 0 0 -1
    outer loop
      vertex -2.2 -2.2 0
      vertex -2.2 -6.9 0
      vertex -6.9 -2.2 0
    endloop
  endfacet
  facet normal 0 0 -1
    outer loop
      vertex 2.2 -2.2 0
      vertex 15.5 -25 0
      vertex 2.2 -6.9 0
    endloop
  endfacet
  facet normal 0 0 -1
    outer loop
      vertex 2.2 2.2 0
      vertex 15.5 25 0
      vertex 6.9 2.2 0
    endloop
  endfacet
  facet normal 0 0 -1
    outer loop
      vertex 15.5 -25 0
      vertex 2.2 -2.2 0
      vertex 6.9 -2.2 0
    endloop
  endfacet
  facet normal 0 0 -1
    outer loop
      vertex 15.5 -25 0
      vertex 6.9 -2.2 0
      vertex 15.5 25 0
    endloop
  endfacet
  facet normal 0 0 -1
    outer loop
      vertex 6.9 -2.2 0
      vertex 6.9 2.2 0
      vertex 15.5 25 0
    endloop
  endfacet
  facet normal 0 0 -1
    outer loop
      vertex -2.2 2.2 0
      vertex -15.5 25 0
      vertex -2.2 6.9 0
    endloop
  endfacet
  facet normal 0 0 -1
    outer loop
      vertex -2.2 6.9 0
      vertex -15.5 25 0
      vertex 2.2 6.9 0
    endloop
  endfacet
  facet normal 0 0 -1
    outer loop
      vertex 2.2 2.2 0
      vertex 2.2 6.9 0
      vertex 15.5 25 0
    endloop
  endfacet
  facet normal 0 0 -1
    outer loop
      vertex -6.9 2.2 0
      vertex -15.5 25 0
      vertex -2.2 2.2 0
    endloop
  endfacet
  facet normal 0 1 0
    outer loop
      vertex -15.5 25 0
      vertex -15.5 25 1.9
      vertex 15.5 25 0
    endloop
  endfacet
  facet normal 0 1 0
    outer loop
      vertex 15.5 25 0
      vertex -15.5 25 1.9
      vertex 15.5 25 1.9
    endloop
  endfacet
  facet normal 0 0 1
    outer loop
      vertex -6.9 -2.2 1.9
      vertex -15.5 -25 1.9
      vertex 15.5 -25 1.9
    endloop
  endfacet
  facet normal 0 0 1
    outer loop
      vertex -2.2 -6.9 1.9
      vertex -6.9 -2.2 1.9
      vertex 15.5 -25 1.9
    endloop
  endfacet
  facet normal 0 0 1
    outer loop
      vertex -15.5 25 1.9
      vertex -15.5 -25 1.9
      vertex -6.9 -2.2 1.9
    endloop
  endfacet
  facet normal 0 0 1
    outer loop
      vertex -2.2 2.2 1.9
      vertex -2.2 6.9 1.9
      vertex -15.5 25 1.9
    endloop
  endfacet
  facet normal 0 0 1
    outer loop
      vertex -15.5 25 1.9
      vertex -6.9 -2.2 1.9
      vertex -6.9 2.2 1.9
    endloop
  endfacet
  facet normal 0 0 1
    outer loop
      vertex 2.2 2.2 1.9
      vertex 6.9 2.2 1.9
      vertex 2.2 6.9 1.9
    endloop
  endfacet
  facet normal 0 0 1
    outer loop
      vertex -15.5 25 1.9
      vertex -6.9 2.2 1.9
      vertex -2.2 2.2 1.9
    endloop
  endfacet
  facet normal 0 0 1
    outer loop
      vertex 2.2 -2.2 1.9
      vertex 2.2 -6.9 1.9
      vertex 15.5 -25 1.9
    endloop
  endfacet
  facet normal 0 0 1
    outer loop
      vertex 15.5 25 1.9
      vertex -15.5 25 1.9
      vertex -2.2 6.9 1.9
    endloop
  endfacet
  facet normal 0 0 1
    outer loop
      vertex 15.5 25 1.9
      vertex -2.2 6.9 1.9
      vertex 2.2 6.9 1.9
    endloop
  endfacet
  facet normal 0 0 1
    outer loop
      vertex 6.9 -2.2 1.9
      vertex 2.2 -2.2 1.9
      vertex 15.5 -25 1.9
    endloop
  endfacet
  facet normal 0 0 1
    outer loop
      vertex 15.5 25 1.9
      vertex 6.9 2.2 1.9
      vertex 15.5 -25 1.9
    endloop
  endfacet
  facet normal 0 0 1
    outer loop
      vertex 15.5 25 1.9
      vertex 2.2 6.9 1.9
      vertex 6.9 2.2 1.9
    endloop
  endfacet
  facet normal 0 0 1
    outer loop
      vertex 6.9 2.2 1.9
      vertex 6.9 -2.2 1.9
      vertex 15.5 -25 1.9
    endloop
  endfacet
  facet normal 0 0 1
    outer loop
      vertex 2.2 -6.9 1.9
      vertex -2.2 -6.9 1.9
      vertex 15.5 -25 1.9
    endloop
  endfacet
  facet normal 0 0 1
    outer loop
      vertex -2.2 -2.2 1.9
      vertex -6.9 -2.2 1.9
      vertex -2.2 -6.9 1.9
    endloop
  endfacet
  facet normal 1 0 0
    outer loop
      vertex 15.5 -25 1.9
      vertex 15.5 -25 0
      vertex 15.5 25 0
    endloop
  endfacet
  facet normal 1 0 0
    outer loop
      vertex 15.5 25 1.9
      vertex 15.5 -25 1.9
      vertex 15.5 25 0
    endloop
  endfacet
  facet normal 1 0 0
    outer loop
      vertex -6.9 2.2 0
      vertex -6.9 2.2 1.9
      vertex -6.9 -2.2 1.9
    endloop
  endfacet
  facet normal 1 0 0
    outer loop
      vertex -6.9 -2.2 0
      vertex -6.9 2.2 0
      vertex -6.9 -2.2 1.9
    endloop
  endfacet
  facet normal 0 -1 0
    outer loop
      vertex -2.2 2.2 0
      vertex -2.2 2.2 1.9
      vertex -6.9 2.2 1.9
    endloop
  endfacet
  facet normal 0 -1 0
    outer loop
      vertex -6.9 2.2 0
      vertex -2.2 2.2 0
      vertex -6.9 2.2 1.9
    endloop
  endfacet
  facet normal 1 0 0
    outer loop
      vertex -2.2 6.9 0
      vertex -2.2 6.9 1.9
      vertex -2.2 2.2 1.9
    endloop
  endfacet
  facet normal 1 0 0
    outer loop
      vertex -2.2 2.2 0
      vertex -2.2 6.9 0
      vertex -2.2 2.2 1.9
    endloop
  endfacet
  facet normal 0 -1 0
    outer loop
      vertex 2.2 6.9 0
      vertex 2.2 6.9 1.9
      vertex -2.2 6.9 1.9
    endloop
  endfacet
  facet normal 0 -1 0
    outer loop
      vertex -2.2 6.9 0
      vertex 2.2 6.9 0
      vertex -2.2 6.9 1.9
    endloop
  endfacet
  facet normal -1 0 0
    outer loop
      vertex 2.2 6.9 1.9
      vertex 2.2 6.9 0
      vertex 2.2 2.2 1.9
    endloop
  endfacet
  facet normal -1 0 0
    outer loop
      vertex 2.2 2.2 1.9
      vertex 2.2 6.9 0
      vertex 2.2 2.2 0
    endloop
  endfacet
  facet normal 0 -1 0
    outer loop
      vertex 6.9 2.2 0
      vertex 6.9 2.2 1.9
      vertex 2.2 2.2 1.9
    endloop
  endfacet
  facet normal 0 -1 0
    outer loop
      vertex 2.2 2.2 0
      vertex 6.9 2.2 0
      vertex 2.2 2.2 1.9
    endloop
  endfacet
  facet normal -1 0 0
    outer loop
      vertex 6.9 2.2 1.9
      vertex 6.9 2.2 0
      vertex 6.9 -2.2 1.9
    endloop
  endfacet
  facet normal -1 0 0
    outer loop
      vertex 6.9 -2.2 1.9
      vertex 6.9 2.2 0
      vertex 6.9 -2.2 0
    endloop
  endfacet
  facet normal 0 1 0
    outer loop
      vertex 6.9 -2.2 1.9
      vertex 6.9 -2.2 0
      vertex 2.2 -2.2 1.9
    endloop
  endfacet
  facet normal 0 1 0
    outer loop
      vertex 2.2 -2.2 1.9
      vertex 6.9 -2.2 0
      vertex 2.2 -2.2 0
    endloop
  endfacet
  facet normal -1 0 0
    outer loop
      vertex 2.2 -2.2 1.9
      vertex 2.2 -2.2 0
      vertex 2.2 -6.9 1.9
    endloop
  endfacet
  facet normal -1 0 0
    outer loop
      vertex 2.2 -6.9 1.9
      vertex 2.2 -2.2 0
      vertex 2.2 -6.9 0
    endloop
  endfacet
  facet normal 0 1 0
    outer loop
      vertex 2.2 -6.9 1.9
      vertex 2.2 -6.9 0
      vertex -2.2 -6.9 1.9
    endloop
  endfacet
  facet normal 0 1 0
    outer loop
      vertex -2.2 -6.9 1.9
      vertex 2.2 -6.9 0
      vertex -2.2 -6.9 0
    endloop
  endfacet
  facet normal 1 0 0
    outer loop
      vertex -2.2 -2.2 0
      vertex -2.2 -2.2 1.9
      vertex -2.2 -6.9 1.9
    endloop
  endfacet
  facet normal 1 0 0
    outer loop
      vertex -2.2 -6.9 0
      vertex -2.2 -2.2 0
      vertex -2.2 -6.9 1.9
    endloop
  endfacet
  facet normal 0 1 0
    outer loop
      vertex -2.2 -2.2 1.9
      vertex -2.2 -2.2 0
      vertex -6.9 -2.2 1.9
    endloop
  endfacet
  facet normal 0 1 0
    outer loop
      vertex -6.9 -2.2 1.9
      vertex -2.2 -2.2 0
      vertex -6.9 -2.2 0
    endloop
  endfacet
endsolid OpenSCAD_Model
