solid OpenSCAD_Model
  facet normal -1 0 0
    outer loop
      vertex -15.5 -25 0
      vertex -15.5 -25 4.1
      vertex -15.5 25.8 0
    endloop
  endfacet
  facet normal -1 0 0
    outer loop
      vertex -15.5 25.8 0
      vertex -15.5 -25 4.1
      vertex -15.5 25 4.1
    endloop
  endfacet
  facet normal -1 0 0
    outer loop
      vertex -15.5 25.8 0
      vertex -15.5 25 4.1
      vertex -15.5 25 6.1
    endloop
  endfacet
  facet normal -1 0 0
    outer loop
      vertex -15.5 25.8 0
      vertex -15.5 25 6.1
      vertex -15.5 25.8 6.1
    endloop
  endfacet
  facet normal 0 -1 0
    outer loop
      vertex -15.5 -25 4.1
      vertex -15.5 -25 0
      vertex 15.5 -25 0
    endloop
  endfacet
  facet normal 0 -1 0
    outer loop
      vertex 15.5 -25 4.1
      vertex -15.5 -25 4.1
      vertex 15.5 -25 0
    endloop
  endfacet
  facet normal 0 0 -1
    outer loop
      vertex 2.2 6.9 0
      vertex -15.5 25.8 0
      vertex 15.5 25.8 0
    endloop
  endfacet
  facet normal 0 0 -1
    outer loop
      vertex -15.5 -25 0
      vertex -15.5 25.8 0
      vertex -6.9 2.2 0
    endloop
  endfacet
  facet normal 0 0 -1
    outer loop
      vertex -15.5 -25 0
      vertex -6.9 2.2 0
      vertex -6.9 -2.2 0
    endloop
  endfacet
  facet normal 0 0 -1
    outer loop
      vertex -15.5 -25 0
      vertex -6.9 -2.2 0
      vertex 15.5 -25 0
    endloop
  endfacet
  facet normal 0 0 -1
    outer loop
      vertex 2.2 -6.9 0
      vertex 15.5 -25 0
      vertex -2.2 -6.9 0
    endloop
  endfacet
  facet normal 0 0 -1
    outer loop
      vertex -6.9 -2.2 0
      vertex -2.2 -6.9 0
      vertex 15.5 -25 0
    endloop
  endfacet
  facet normal 0 0 -1
    outer loop
      vertex -2.2 -2.2 0
      vertex -2.2 -6.9 0
      vertex -6.9 -2.2 0
    endloop
  endfacet
  facet normal 0 0 -1
    outer loop
      vertex 2.2 -2.2 0
      vertex 15.5 -25 0
      vertex 2.2 -6.9 0
    endloop
  endfacet
  facet normal 0 0 -1
    outer loop
      vertex 2.2 2.2 0
      vertex 15.5 25.8 0
      vertex 6.9 2.2 0
    endloop
  endfacet
  facet normal 0 0 -1
    outer loop
      vertex 15.5 -25 0
      vertex 2.2 -2.2 0
      vertex 6.9 -2.2 0
    endloop
  endfacet
  facet normal 0 0 -1
    outer loop
      vertex 15.5 -25 0
      vertex 6.9 -2.2 0
      vertex 15.5 25.8 0
    endloop
  endfacet
  facet normal 0 0 -1
    outer loop
      vertex 6.9 -2.2 0
      vertex 6.9 2.2 0
      vertex 15.5 25.8 0
    endloop
  endfacet
  facet normal 0 0 -1
    outer loop
      vertex -2.2 2.2 0
      vertex -15.5 25.8 0
      vertex -2.2 6.9 0
    endloop
  endfacet
  facet normal 0 0 -1
    outer loop
      vertex -2.2 6.9 0
      vertex -15.5 25.8 0
      vertex 2.2 6.9 0
    endloop
  endfacet
  facet normal 0 0 -1
    outer loop
      vertex 2.2 2.2 0
      vertex 2.2 6.9 0
      vertex 15.5 25.8 0
    endloop
  endfacet
  facet normal 0 0 -1
    outer loop
      vertex -6.9 2.2 0
      vertex -15.5 25.8 0
      vertex -2.2 2.2 0
    endloop
  endfacet
  facet normal 0 1 0
    outer loop
      vertex -15.5 25.8 0
      vertex -15.5 25.8 6.1
      vertex 15.5 25.8 0
    endloop
  endfacet
  facet normal 0 1 0
    outer loop
      vertex 15.5 25.8 0
      vertex -15.5 25.8 6.1
      vertex 15.5 25.8 6.1
    endloop
  endfacet
  facet normal 0 0 1
    outer loop
      vertex -15.5 25.8 6.1
      vertex -15.5 25 6.1
      vertex 15.5 25 6.1
    endloop
  endfacet
  facet normal 0 0 1
    outer loop
      vertex 15.5 25.8 6.1
      vertex -15.5 25.8 6.1
      vertex 15.5 25 6.1
    endloop
  endfacet
  facet normal 0 -1 0
    outer loop
      vertex -15.5 25 6.1
      vertex -15.5 25 4.1
      vertex 15.5 25 4.1
    endloop
  endfacet
  facet normal 0 -1 0
    outer loop
      vertex 15.5 25 6.1
      vertex -15.5 25 6.1
      vertex 15.5 25 4.1
    endloop
  endfacet
  facet normal 0 0 1
    outer loop
      vertex -6.9 -2.2 4.1
      vertex -15.5 -25 4.1
      vertex 15.5 -25 4.1
    endloop
  endfacet
  facet normal 0 0 1
    outer loop
      vertex -2.2 -6.9 4.1
      vertex -6.9 -2.2 4.1
      vertex 15.5 -25 4.1
    endloop
  endfacet
  facet normal 0 0 1
    outer loop
      vertex -15.5 25 4.1
      vertex -15.5 -25 4.1
      vertex -6.9 -2.2 4.1
    endloop
  endfacet
  facet normal 0 0 1
    outer loop
      vertex -2.2 2.2 4.1
      vertex -2.2 6.9 4.1
      vertex -15.5 25 4.1
    endloop
  endfacet
  facet normal 0 0 1
    outer loop
      vertex -15.5 25 4.1
      vertex -6.9 -2.2 4.1
      vertex -6.9 2.2 4.1
    endloop
  endfacet
  facet normal 0 0 1
    outer loop
      vertex 2.2 2.2 4.1
      vertex 6.9 2.2 4.1
      vertex 2.2 6.9 4.1
    endloop
  endfacet
  facet normal 0 0 1
    outer loop
      vertex -15.5 25 4.1
      vertex -6.9 2.2 4.1
      vertex -2.2 2.2 4.1
    endloop
  endfacet
  facet normal 0 0 1
    outer loop
      vertex 2.2 -2.2 4.1
      vertex 2.2 -6.9 4.1
      vertex 15.5 -25 4.1
    endloop
  endfacet
  facet normal 0 0 1
    outer loop
      vertex 15.5 25 4.1
      vertex -15.5 25 4.1
      vertex -2.2 6.9 4.1
    endloop
  endfacet
  facet normal 0 0 1
    outer loop
      vertex 15.5 25 4.1
      vertex -2.2 6.9 4.1
      vertex 2.2 6.9 4.1
    endloop
  endfacet
  facet normal 0 0 1
    outer loop
      vertex 6.9 -2.2 4.1
      vertex 2.2 -2.2 4.1
      vertex 15.5 -25 4.1
    endloop
  endfacet
  facet normal 0 0 1
    outer loop
      vertex 15.5 25 4.1
      vertex 6.9 2.2 4.1
      vertex 15.5 -25 4.1
    endloop
  endfacet
  facet normal 0 0 1
    outer loop
      vertex 15.5 25 4.1
      vertex 2.2 6.9 4.1
      vertex 6.9 2.2 4.1
    endloop
  endfacet
  facet normal 0 0 1
    outer loop
      vertex 6.9 2.2 4.1
      vertex 6.9 -2.2 4.1
      vertex 15.5 -25 4.1
    endloop
  endfacet
  facet normal 0 0 1
    outer loop
      vertex 2.2 -6.9 4.1
      vertex -2.2 -6.9 4.1
      vertex 15.5 -25 4.1
    endloop
  endfacet
  facet normal 0 0 1
    outer loop
      vertex -2.2 -2.2 4.1
      vertex -6.9 -2.2 4.1
      vertex -2.2 -6.9 4.1
    endloop
  endfacet
  facet normal 1 0 0
    outer loop
      vertex 15.5 -25 4.1
      vertex 15.5 -25 0
      vertex 15.5 25.8 0
    endloop
  endfacet
  facet normal 1 0 0
    outer loop
      vertex 15.5 25 4.1
      vertex 15.5 -25 4.1
      vertex 15.5 25.8 0
    endloop
  endfacet
  facet normal 1 0 0
    outer loop
      vertex 15.5 25.8 6.1
      vertex 15.5 25 4.1
      vertex 15.5 25.8 0
    endloop
  endfacet
  facet normal 1 0 0
    outer loop
      vertex 15.5 25 6.1
      vertex 15.5 25 4.1
      vertex 15.5 25.8 6.1
    endloop
  endfacet
  facet normal 1 0 0
    outer loop
      vertex -6.9 2.2 0
      vertex -6.9 2.2 4.1
      vertex -6.9 -2.2 4.1
    endloop
  endfacet
  facet normal 1 0 0
    outer loop
      vertex -6.9 -2.2 0
      vertex -6.9 2.2 0
      vertex -6.9 -2.2 4.1
    endloop
  endfacet
  facet normal 0 -1 0
    outer loop
      vertex -2.2 2.2 0
      vertex -2.2 2.2 4.1
      vertex -6.9 2.2 4.1
    endloop
  endfacet
  facet normal 0 -1 0
    outer loop
      vertex -6.9 2.2 0
      vertex -2.2 2.2 0
      vertex -6.9 2.2 4.1
    endloop
  endfacet
  facet normal 1 0 0
    outer loop
      vertex -2.2 6.9 0
      vertex -2.2 6.9 4.1
      vertex -2.2 2.2 4.1
    endloop
  endfacet
  facet normal 1 0 0
    outer loop
      vertex -2.2 2.2 0
      vertex -2.2 6.9 0
      vertex -2.2 2.2 4.1
    endloop
  endfacet
  facet normal 0 -1 0
    outer loop
      vertex 2.2 6.9 0
      vertex 2.2 6.9 4.1
      vertex -2.2 6.9 4.1
    endloop
  endfacet
  facet normal 0 -1 0
    outer loop
      vertex -2.2 6.9 0
      vertex 2.2 6.9 0
      vertex -2.2 6.9 4.1
    endloop
  endfacet
  facet normal -1 0 0
    outer loop
      vertex 2.2 6.9 4.1
      vertex 2.2 6.9 0
      vertex 2.2 2.2 4.1
    endloop
  endfacet
  facet normal -1 0 0
    outer loop
      vertex 2.2 2.2 4.1
      vertex 2.2 6.9 0
      vertex 2.2 2.2 0
    endloop
  endfacet
  facet normal 0 -1 0
    outer loop
      vertex 6.9 2.2 0
      vertex 6.9 2.2 4.1
      vertex 2.2 2.2 4.1
    endloop
  endfacet
  facet normal 0 -1 0
    outer loop
      vertex 2.2 2.2 0
      vertex 6.9 2.2 0
      vertex 2.2 2.2 4.1
    endloop
  endfacet
  facet normal -1 0 0
    outer loop
      vertex 6.9 2.2 4.1
      vertex 6.9 2.2 0
      vertex 6.9 -2.2 4.1
    endloop
  endfacet
  facet normal -1 0 0
    outer loop
      vertex 6.9 -2.2 4.1
      vertex 6.9 2.2 0
      vertex 6.9 -2.2 0
    endloop
  endfacet
  facet normal 0 1 0
    outer loop
      vertex 6.9 -2.2 4.1
      vertex 6.9 -2.2 0
      vertex 2.2 -2.2 4.1
    endloop
  endfacet
  facet normal 0 1 0
    outer loop
      vertex 2.2 -2.2 4.1
      vertex 6.9 -2.2 0
      vertex 2.2 -2.2 0
    endloop
  endfacet
  facet normal -1 0 0
    outer loop
      vertex 2.2 -2.2 4.1
      vertex 2.2 -2.2 0
      vertex 2.2 -6.9 4.1
    endloop
  endfacet
  facet normal -1 0 0
    outer loop
      vertex 2.2 -6.9 4.1
      vertex 2.2 -2.2 0
      vertex 2.2 -6.9 0
    endloop
  endfacet
  facet normal 0 1 0
    outer loop
      vertex 2.2 -6.9 4.1
      vertex 2.2 -6.9 0
      vertex -2.2 -6.9 4.1
    endloop
  endfacet
  facet normal 0 1 0
    outer loop
      vertex -2.2 -6.9 4.1
      vertex 2.2 -6.9 0
      vertex -2.2 -6.9 0
    endloop
  endfacet
  facet normal 1 0 0
    outer loop
      vertex -2.2 -2.2 0
      vertex -2.2 -2.2 4.1
      vertex -2.2 -6.9 4.1
    endloop
  endfacet
  facet normal 1 0 0
    outer loop
      vertex -2.2 -6.9 0
      vertex -2.2 -2.2 0
      vertex -2.2 -6.9 4.1
    endloop
  endfacet
  facet normal 0 1 0
    outer loop
      vertex -2.2 -2.2 4.1
      vertex -2.2 -2.2 0
      vertex -6.9 -2.2 4.1
    endloop
  endfacet
  facet normal 0 1 0
    outer loop
      vertex -6.9 -2.2 4.1
      vertex -2.2 -2.2 0
      vertex -6.9 -2.2 0
    endloop
  endfacet
  facet normal -1 0 0
    outer loop
      vertex -15.5 -25.8 0
      vertex -15.5 -25.8 6.1
      vertex -15.5 -25 0
    endloop
  endfacet
  facet normal -1 0 0
    outer loop
      vertex -15.5 -25 0
      vertex -15.5 -25.8 6.1
      vertex -15.5 -25 6.1
    endloop
  endfacet
  facet normal 0 -1 0
    outer loop
      vertex -15.5 -25.8 6.1
      vertex -15.5 -25.8 0
      vertex 15.5 -25.8 0
    endloop
  endfacet
  facet normal 0 -1 0
    outer loop
      vertex 15.5 -25.8 6.1
      vertex -15.5 -25.8 6.1
      vertex 15.5 -25.8 0
    endloop
  endfacet
  facet normal 0 0 -1
    outer loop
      vertex -15.5 -25.8 0
      vertex -15.5 -25 0
      vertex 15.5 -25.8 0
    endloop
  endfacet
  facet normal 0 0 -1
    outer loop
      vertex 15.5 -25.8 0
      vertex -15.5 -25 0
      vertex 15.5 -25 0
    endloop
  endfacet
  facet normal 0 1 0
    outer loop
      vertex -15.5 -25 0
      vertex -15.5 -25 6.1
      vertex 15.5 -25 0
    endloop
  endfacet
  facet normal 0 1 0
    outer loop
      vertex 15.5 -25 0
      vertex -15.5 -25 6.1
      vertex 15.5 -25 6.1
    endloop
  endfacet
  facet normal 0 0 1
    outer loop
      vertex -15.5 -25 6.1
      vertex -15.5 -25.8 6.1
      vertex 15.5 -25.8 6.1
    endloop
  endfacet
  facet normal 0 0 1
    outer loop
      vertex 15.5 -25 6.1
      vertex -15.5 -25 6.1
      vertex 15.5 -25.8 6.1
    endloop
  endfacet
  facet normal 1 0 0
    outer loop
      vertex 15.5 -25.8 6.1
      vertex 15.5 -25.8 0
      vertex 15.5 -25 0
    endloop
  endfacet
  facet normal 1 0 0
    outer loop
      vertex 15.5 -25 6.1
      vertex 15.5 -25.8 6.1
      vertex 15.5 -25 0
    endloop
  endfacet
endsolid OpenSCAD_Model
